<mxfile host="app.diagrams.net" agent="Mozilla/5.0 (Windows NT 10.0; Win64; x64) AppleWebKit/537.36 (KHTML, like Gecko) Chrome/128.0.0.0 Safari/537.36" version="24.7.16" pages="2">
  <diagram name="페이지-1" id="aaGlsbe50dgoS1k1p6ko">
    <mxGraphModel dx="1434" dy="746" grid="1" gridSize="10" guides="1" tooltips="1" connect="1" arrows="1" fold="1" page="1" pageScale="1" pageWidth="827" pageHeight="1169" math="0" shadow="0">
      <root>
        <mxCell id="0" />
        <mxCell id="1" parent="0" />
        <mxCell id="W3yy6Q3UKRZWgazSG2Jg-1" value="" style="rounded=1;whiteSpace=wrap;html=1;strokeWidth=3;fillColor=default;arcSize=4;strokeColor=#7EA6E0;" vertex="1" parent="1">
          <mxGeometry x="120" y="200" width="1020" height="580" as="geometry" />
        </mxCell>
        <mxCell id="W3yy6Q3UKRZWgazSG2Jg-2" value="" style="rounded=1;whiteSpace=wrap;html=1;fillColor=none;strokeWidth=3;strokeColor=#CC99FF;arcSize=5;" vertex="1" parent="1">
          <mxGeometry x="233" y="328" width="850" height="310" as="geometry" />
        </mxCell>
        <mxCell id="W3yy6Q3UKRZWgazSG2Jg-9" value="&lt;font color=&quot;#ffffff&quot; style=&quot;font-size: 18px;&quot;&gt;&lt;b&gt;Master Node&lt;/b&gt;&lt;/font&gt;" style="rounded=1;whiteSpace=wrap;html=1;fillColor=#e1d5e7;strokeColor=#9673a6;" vertex="1" parent="1">
          <mxGeometry x="304.5" y="348" width="746" height="60" as="geometry" />
        </mxCell>
        <mxCell id="W3yy6Q3UKRZWgazSG2Jg-10" value="" style="rounded=1;whiteSpace=wrap;html=1;strokeWidth=2;strokeColor=#000033;arcSize=7;" vertex="1" parent="1">
          <mxGeometry x="304.5" y="418" width="226" height="180" as="geometry" />
        </mxCell>
        <mxCell id="W3yy6Q3UKRZWgazSG2Jg-11" value="Worker Node#1" style="text;html=1;align=center;verticalAlign=middle;whiteSpace=wrap;rounded=0;fontSize=14;fontStyle=1" vertex="1" parent="1">
          <mxGeometry x="346" y="598" width="143" height="30" as="geometry" />
        </mxCell>
        <mxCell id="W3yy6Q3UKRZWgazSG2Jg-12" value="" style="rounded=1;whiteSpace=wrap;html=1;strokeWidth=2;strokeColor=#000033;arcSize=7;" vertex="1" parent="1">
          <mxGeometry x="564.5" y="418" width="226" height="180" as="geometry" />
        </mxCell>
        <mxCell id="W3yy6Q3UKRZWgazSG2Jg-13" value="Worker Node#2" style="text;html=1;align=center;verticalAlign=middle;whiteSpace=wrap;rounded=0;fontSize=14;fontStyle=1" vertex="1" parent="1">
          <mxGeometry x="606" y="598" width="143" height="30" as="geometry" />
        </mxCell>
        <mxCell id="W3yy6Q3UKRZWgazSG2Jg-14" value="" style="rounded=1;whiteSpace=wrap;html=1;strokeWidth=2;strokeColor=#000033;arcSize=7;" vertex="1" parent="1">
          <mxGeometry x="824.5" y="418" width="226" height="180" as="geometry" />
        </mxCell>
        <mxCell id="W3yy6Q3UKRZWgazSG2Jg-15" value="Worker Node#3" style="text;html=1;align=center;verticalAlign=middle;whiteSpace=wrap;rounded=0;fontSize=14;fontStyle=1" vertex="1" parent="1">
          <mxGeometry x="866" y="598" width="143" height="30" as="geometry" />
        </mxCell>
        <mxCell id="W3yy6Q3UKRZWgazSG2Jg-16" value="" style="rounded=0;whiteSpace=wrap;html=1;fontColor=#000000;dashed=1;dashPattern=1 1;fillColor=none;strokeColor=#7EA6E0;strokeWidth=3;" vertex="1" parent="1">
          <mxGeometry x="207.5" y="438" width="903" height="140" as="geometry" />
        </mxCell>
        <mxCell id="W3yy6Q3UKRZWgazSG2Jg-17" value="Istio" style="sketch=0;html=1;verticalAlign=top;labelPosition=center;verticalLabelPosition=bottom;align=center;spacingTop=-6;fontSize=11;fontStyle=1;fontColor=#999999;shape=image;aspect=fixed;imageAspect=0;image=data:image/svg+xml,PHN2ZyB4bWxucz0iaHR0cDovL3d3dy53My5vcmcvMjAwMC9zdmciIHhtbG5zOnY9Imh0dHBzOi8vdmVjdGEuaW8vbmFubyIgd2lkdGg9IjE2MCIgaGVpZ2h0PSIyNDAiIHZpZXdCb3g9IjAgMCAxNjAgMjQwIj4mI3hhOwk8c3R5bGUgdHlwZT0idGV4dC9jc3MiPiYjeGE7CS5zdDB7ZmlsbDojNDY2YmIwO30mI3hhOwk8L3N0eWxlPiYjeGE7CTxwYXRoIGNsYXNzPSJzdDAiIGQ9Ik02MCAyNDBMMCAyMTBoMTYwem0wLTE2MEwwIDIwMGw2MC0xMHpNNzAgMHYxOTBsOTAgMTB6Ii8+JiN4YTs8L3N2Zz4=;" vertex="1" parent="1">
          <mxGeometry x="195.5" y="408" width="27" height="42" as="geometry" />
        </mxCell>
        <mxCell id="W3yy6Q3UKRZWgazSG2Jg-18" value="" style="rounded=0;whiteSpace=wrap;html=1;" vertex="1" parent="1">
          <mxGeometry x="357.5" y="457" width="120" height="102" as="geometry" />
        </mxCell>
        <mxCell id="W3yy6Q3UKRZWgazSG2Jg-19" value="&lt;b&gt;&lt;font style=&quot;font-size: 14px;&quot;&gt;POD&lt;/font&gt;&lt;/b&gt;" style="text;html=1;align=center;verticalAlign=middle;whiteSpace=wrap;rounded=0;" vertex="1" parent="1">
          <mxGeometry x="387.5" y="529" width="60" height="30" as="geometry" />
        </mxCell>
        <mxCell id="W3yy6Q3UKRZWgazSG2Jg-20" value="Container" style="rounded=0;whiteSpace=wrap;html=1;" vertex="1" parent="1">
          <mxGeometry x="369.5" y="469" width="101" height="28" as="geometry" />
        </mxCell>
        <mxCell id="W3yy6Q3UKRZWgazSG2Jg-21" value="envoy (froxy)" style="rounded=0;whiteSpace=wrap;html=1;" vertex="1" parent="1">
          <mxGeometry x="369" y="507" width="101.5" height="20" as="geometry" />
        </mxCell>
        <mxCell id="W3yy6Q3UKRZWgazSG2Jg-22" value="" style="rounded=0;whiteSpace=wrap;html=1;" vertex="1" parent="1">
          <mxGeometry x="617.5" y="457" width="120" height="102" as="geometry" />
        </mxCell>
        <mxCell id="W3yy6Q3UKRZWgazSG2Jg-23" value="&lt;b&gt;&lt;font style=&quot;font-size: 14px;&quot;&gt;POD&lt;/font&gt;&lt;/b&gt;" style="text;html=1;align=center;verticalAlign=middle;whiteSpace=wrap;rounded=0;" vertex="1" parent="1">
          <mxGeometry x="647.5" y="529" width="60" height="30" as="geometry" />
        </mxCell>
        <mxCell id="W3yy6Q3UKRZWgazSG2Jg-24" value="Container" style="rounded=0;whiteSpace=wrap;html=1;" vertex="1" parent="1">
          <mxGeometry x="629.5" y="469" width="101" height="28" as="geometry" />
        </mxCell>
        <mxCell id="W3yy6Q3UKRZWgazSG2Jg-25" value="envoy (froxy)" style="rounded=0;whiteSpace=wrap;html=1;" vertex="1" parent="1">
          <mxGeometry x="629" y="507" width="101.5" height="20" as="geometry" />
        </mxCell>
        <mxCell id="W3yy6Q3UKRZWgazSG2Jg-26" value="" style="rounded=0;whiteSpace=wrap;html=1;" vertex="1" parent="1">
          <mxGeometry x="877.5" y="457" width="120" height="102" as="geometry" />
        </mxCell>
        <mxCell id="W3yy6Q3UKRZWgazSG2Jg-27" value="&lt;b&gt;&lt;font style=&quot;font-size: 14px;&quot;&gt;POD&lt;/font&gt;&lt;/b&gt;" style="text;html=1;align=center;verticalAlign=middle;whiteSpace=wrap;rounded=0;" vertex="1" parent="1">
          <mxGeometry x="907.5" y="529" width="60" height="30" as="geometry" />
        </mxCell>
        <mxCell id="W3yy6Q3UKRZWgazSG2Jg-28" value="Container" style="rounded=0;whiteSpace=wrap;html=1;" vertex="1" parent="1">
          <mxGeometry x="889.5" y="469" width="101" height="28" as="geometry" />
        </mxCell>
        <mxCell id="W3yy6Q3UKRZWgazSG2Jg-29" value="envoy (froxy)" style="rounded=0;whiteSpace=wrap;html=1;" vertex="1" parent="1">
          <mxGeometry x="889" y="507" width="101.5" height="20" as="geometry" />
        </mxCell>
        <mxCell id="W3yy6Q3UKRZWgazSG2Jg-30" value="" style="endArrow=classic;startArrow=classic;html=1;rounded=0;exitX=1;exitY=0.5;exitDx=0;exitDy=0;entryX=0;entryY=0.5;entryDx=0;entryDy=0;strokeWidth=2;" edge="1" parent="1" source="W3yy6Q3UKRZWgazSG2Jg-21" target="W3yy6Q3UKRZWgazSG2Jg-25">
          <mxGeometry width="50" height="50" relative="1" as="geometry">
            <mxPoint x="650.5" y="368" as="sourcePoint" />
            <mxPoint x="700.5" y="318" as="targetPoint" />
          </mxGeometry>
        </mxCell>
        <mxCell id="W3yy6Q3UKRZWgazSG2Jg-31" value="" style="endArrow=classic;startArrow=classic;html=1;rounded=0;exitX=1;exitY=0.5;exitDx=0;exitDy=0;entryX=0;entryY=0.5;entryDx=0;entryDy=0;strokeWidth=2;" edge="1" parent="1">
          <mxGeometry width="50" height="50" relative="1" as="geometry">
            <mxPoint x="731" y="516.5" as="sourcePoint" />
            <mxPoint x="890" y="516.5" as="targetPoint" />
          </mxGeometry>
        </mxCell>
        <mxCell id="4CNYC6tnbti6a-UOO8II-1" value="" style="shape=image;verticalLabelPosition=bottom;labelBackgroundColor=default;verticalAlign=top;aspect=fixed;imageAspect=0;image=data:image/png,iVBORw0KGgoAAAANSUhEUgAAAUoAAACZCAMAAAB+KoMCAAABI1BMVEX///9mOno+Rs/08Pb6+Ps/SMzs5u95OpNcKXIuPMorOcolMsjm3OpyLY1xK41gMHV8QJXWx925n8agerF/RpfFr8/d0OPJtdKsjbrBssiribp/XI+OXqOztefKvtBYIW+0or2hf7IYKMecn+EvM7U3PcDg7O9sQn9gZtKRld6ija3D0+cvL6LYztz///iReNFohKuGUp2txt2Rd57L2+OWtsaVaqllVcyvm9nh4fZ1Xst3UoiaidR3fdgfQZpNPslAZJ6IaZa8v+rPvePKy+6/qt2Ii9za8P8lKZG5udpQd62hrMqyq+I8VZURH5Dk/v9KXL1eRsl5l7xZXtCDkM82TLwcHJ4vSpYQGbCVmcBRD2l2e8SFh7xTgaNYaLUAAI+Oo9qy3A6TAAANnUlEQVR4nO2d+3vSSBfHw0xCyIWS0BAQqVhaKm67tqwVSktbBXqz1e3Fuuq67v7/f8V7zkwCAQJBn/j2Eeb7A1Iy10/OnJlkTqIkCQkJCQkJCQkJCQkJhSr5Xamp/JOa8WuL5kpUkg4Ons5EU7aX85L0KPPb7z+7Xb+aaL6hqiqgfJxJpR4/otNTy27RUVVEmcqUn/1m/n/a+CsILExVLcuxEGUClCq/mULTLTiQ2uIoITXS/D6/MK9Cjo6llsAufZSc5pMwR2gyjqqVzfZRMpoz+oU5ll1UUU4OQCwHUTKaL58MpzazDqa2Vl3ImQ6g9GhG+IW5VnEpbdWzbjKNEEZRAh6gGZhW3CWAvpqnpZw0jpKxP4jysvOrwqqbXQVnuRSOktFMvPQHulvKmyr8MQkl0kw9XtApvUglREknowSVfS9o5yVmv1NQAsynD9edh9RMKFN9lLkZUGaePlx3HlICZWwSKGOTQBmbBMrYJFDGJoEyNgmUsUmgjE0CZWwSKGOTQBmbBMrYJFDGpp+AcmFvsiUjUWZSB/6dcUBJ09Nv/SZSmSdT6ptjFa3C8tS76KnMy8HWrJtezqrTrDKVehy6t7YIyqZVy6rnzPC9nUx5mIyJG2pW0SwBxHGUmXJioXcd5XxJtXDzy6UjKEPJuKsqJHdKdhJMdAjl8IbagiqZdVTLUdVGyRqgnEiGsYfUznJgHxzM99GiDuwR2cuAx+lHZ0SQwd1wSN1HmUqI4IyAaA6MzeIxQ4noICBkz1GmUm8WdMqeIrOAKA/C41vGRHN1mMcfJRY6IkNCaln4HAulQIYhZMwspJYfj0GjPMdIGXYDbPrJm4WYg8xsXVURZXlSiFVQyWxJVYuACGai6LnFLlpqGlGWYUE65zSTwBFmGAtRphJhIVZBMQ/qWFYBUD5LTA5v43ILKpatIsoUW03Nb+RlkpOBVaTqo8QLw1S4/VBY9mC0oFVUfZRT2IOnZWWXGj7K+V21MzIWXNsUbbjmHqBkNBOjcdAsCtiyHEwtLQVQ8ovJkdToM6Bop5GFa/qlAUp+CT9vNOlSGhaDjVwDsEjJYZQJHrkbHI08dXZ1WcIr9GGUyGcodQ5T11fzaI+jKPmV+VzFClIra2Ini+EoE8OxprKadR2wx2w4ysRwnG+uZOcc+DftSmEoGc0Z11i/gpIFQDIVJaj80kstA0LLnYYS+bzxUmdNyZ6OEvRlbib0mVBmfvNSz4Qy44PPujOgTAmUAuWoBMrYJFDGJoEyNgmUsUmgjE0CZWwSKGOTQBmbBMrYJFDGJoEyNgmUsUmgjE2AUoq+X/ldKMv9+5UzoMzMz/1KutTIp5PTUOJ2op9aXmrkpqMMbj7m1EK2Lk1BmUml5mjzkVpp1Vm2J6HMjLyrwYHUjfwklJnys2CAgZ1WVadgTkI5fYP4VxQG9KlOvZGUwnYcR43GLWKsYL2Ev4/tOI6mltlbiupWlo6hHD1HcyLckbUctV7MB/bBE5MCqGQv9ao9tA8+YcMLYxUcyyllC+nAPvgsoVy/qvqvCZI4yumvtGGxHJDaRzk9tb1sIc1+SMFcbTOGigX0cZQzGI27ivEZiDITHQbEAmM4ykxqLgf2qGjOQZRfZouMpPk6Rv5nZovYNwvMV5bnd2CPikoh8X8msHoahiA0NYX56/eQkyHLoaGFCyTwi/jIycFsEVOyvbyEoapfRDT/iLzoPx6Lnkk9m06TvVnQj0WfwYUujnjUmmrVB09IpCZPGuzdlTCt1wdPSIxEYy2qqN3AwEinlJeHn9sJjz9j7650nHo2OfwIlHgjqAtLQVgMsvDS8afJRheGtFBH622w+T/kabK5i6T8HhWXnBJcSU55xjH1ckDTXVIblk0nP+O4yO+wLNozPHlb7j95W5Cjn7z98vThuvOQEs+DxybxloLYJFDGJoEyNgmUsUmgjE0CZWwSKGOTQBmbBMrYJFDGJoEyNgmUsUmgjE0CZWyaCeWX70JZfvpw3XlIFfNRKDF8yr+Nbq/SqFu/i/smrOKSU2+YkzckhiNh3CW1ZNnyRJTzHyQ0RSZGBKmlrIqmNIoyM0qGYjSW6hTqYdtkIzGXCyj+ohcH/8uxIZQT4gpYNJZjNbLmMEoRV8DE3/yH7xQKhBRMJEPz/GVFViCkYD7DUX9M9nLa6r90EYbq9DeGmQVVHbx0MVVe1Jlmgmiuzv6j1oNyZhYy9rLKBni5LN65GCITVpnSzBH4NGtL0pMFn2mEhISEhISEhISEhISEhISEhISEhITmRJ3OxcbPKluWZ9n+ptCEqJvunU5nc8ba6MpsPWofHv69O0O6Me0dHt7CP93Dw8M/huo39I+RjRxXsteLzHVVM0CHt1H9sivGv2fTk5wYxhEvZgAAvl3iIf5D61CHymr4da+i/xXdA6oTor+NTjeubU17J0mmMZpdPla2fgDlScWIam5NJ9A7XV9/FZHQPH3+dTpKapAtTjIAYF/Td/A8EOMW8RHNwNr+gSPbRLuN7oGmKOT9n5HpxrVNyGtJOlbwM6gfRNnVyLvpKfZ0pQr232p/ikIZrW1SveTfAgD2CdkBtIoGZN2KUgV69EpDlFQj7yPMXJKailJVqti27hrX1w0JPsGsr/DzxXP4obX2GRBd3RFyfxloDXmNteM4wVRnXg5EedHWyDc2auxTjVTZAPILgnr+6CpeV+hVk5DrS/QTRLmHIzDS1xRCvrGT0T3EzH6V++zcgUy0p5UaIdXP4MvM51Bob+2SNxrbvknhJz/N+n+7gWo8gVEeeebTJD4AjhIS4ujY0xTOl7KWtDUtcijo5OiUN3GvAvasadrHXelYM6BP+zpkf1HR1muGfv4nbeqaASOsbzqA8u2eRraw/ZAK/WNTg7EHKBW9AsPmPfRmz9B0g+BBvyCprWtVQ1PIR6jCJBordEdqG2AcRuUfydYhh0Z06HfbYAP6/MxHqVQ/bPLpRK5Ba+DwkSzZhnZ/Z+g7bV2HbpjQkjP4ACOSm+gQdGNHMhVeTd8TwRDYGQPAUIINMB8Kxkq+XfT36cGPRbkfyLkDyT5Ca90VEPTnaOPFjbKOKAmcrBfQRe3u7h24xuotbSlk3Z9jtsGMiML/hFTrm14OQAkpXch2C90kR5syQH83KKgN+T5cEYW8RZOo3so9MJ1d95Qo1ysrm9Ix2KsMXX2/YUKhu3Lr1Ed5giXo+vVnPO86eZtMNtG2bV0hSu3u1tXR/cHJfQt8FMi0rZH7Tbl3s4PtwmpYG3m3+93A9ElD2Trj5wp6dM9GUxJPrW7cf/CmuBvyMcILArRdqdl3HG02XkdQbmGttELONzCBtjNACQpFib4S2njkuSQ48+cbfkFYxw47/FpygbQkY7ZL31d2dfhdhpav/2EbSvW/zcCrhNpgrdBB7XxDJmw0nGAeW+d2BG4bxkQTITGU4PT4uKWmX4028BVb/PzwrnoAACWUX+W8uzpWpmge/n6OSYIzet/pbRPPets6ud+QxlBiYS6c+0qlAqPPHyWIsqp4A3wcZRecDXpivVIBt/Fxwy/IQ3mCKCENFqpp+q2Pcs//CbDcELBC43owhyXXakSH7v1DNfQG0BrtL4bSN7DX4ATPJY7S1P1JOlgNV5ONw1EA6EEg6Tk3P7pyqgFN8t7rbcRcCjgIOEhFYUDaXuVhKKHO6nOmy35e8o4aCmtEKEro1I2iHLJMXyehvF9jxzcHKMk1++XDrkRrAAuc6tCy1wa7fIcWd8qSfR6gTMKXNlu1eCiVAcp+NVz7/oTcBwCDk/lK1wguScwaUXjKSJQwhA5PT0+bChtz3CYBzDEbGkMoacVrmOyvj9kM3jXY0gFRvhpG2cbDMMC5ISSlMJQwwLkJUBoY4HyEJGUKNbW6RPGXkVuvBvUS1ndWcB8lsyrWc4ZS1vgAp+B0/WoGbffADAFgMzgsufBstL++8M4C95HNiNUQNJ+tCU7Qr6FX/xuWEmAOMC7vYSwpAZTMiV+2WnsVf5DwdWVbY12F5aWfA6edyxYMVLBsdHdfW63O3XkoSmz89UWLrRS7YGgXvVcw7cBKqNU7/Pes++nvzZat+NCkpn7/uYUFw9wPHV6H1lzBeRyghCIUdj74tANNg4Z0jnf61VT8Bc2ext1oEMCfHCWeEKixra9/OGt1wJuwuQEW8ufTSMJyx2CeDxYPn3a3wfPgpdKnXaAKVwCGouuv/GUOWOM+rmtgbdFHqbOFUVPXYQTuYQ5dwQsRGVxjBZcz2IYT+AMvGc4HBbUNA1EamDvZ1FmhgJJiFlgMuYrOrjIAZQUPaYY/z93wtJqBLmbbaw2grOCSiDXxGCp7JXkrIq/FuBiiXjWGj9LGyS0AIGlon2D2wbQSPdb19xtt3nCNH0fmUy8J5auVFX7GYRm02VvxtIFrW7j27LKjVyv+pXzvtAY/X/j3EyA9zshJyHGJl8eQo4M55JWVi16tds1XG8mVO/geLKiHSx5cejGwnUMo9MMF9v+UZ5I7NfwJjnZOvS9ecztrNSyLN6f3HAr+dkGxAZeDJrHmUfhJ9lp8/d/GUDVcx2y6HAYgdXibXPZHDxver31/sAgUGtaJZ5Yzqtt3IkJjgvXnZXQqTxQuIn7gtsKCKAmTwqxDVr4xjOgbQ0JCQkJCQkJCQkJCQkJCQkJCQkLfp/8B82EmAxtucGoAAAAASUVORK5CYII=;imageBorder=#CC99FF;strokeWidth=4;" vertex="1" parent="1">
          <mxGeometry x="149.5" y="290" width="150.98" height="70" as="geometry" />
        </mxCell>
        <mxCell id="4CNYC6tnbti6a-UOO8II-2" value="" style="shape=image;verticalLabelPosition=bottom;labelBackgroundColor=default;verticalAlign=top;aspect=fixed;imageAspect=0;image=data:image/png,iVBORw0KGgoAAAANSUhEUgAAARwAAACyCAMAAACnS4D4AAAAclBMVEX///8ze7YacbLc5fAuebU8gLkidbP2+fy60OUrd7TO3uu+1Oc1f7kgc7LY5fCDqM3r8vjf6vNdksJKhbsNbrFllcONstPx9/t4o8ubutjm7/ZmmcWTt9bH2emIrM9RjL+xyeCow91yn8lLib0AZayTstJV6a6GAAAMz0lEQVR4nO1d63qyOhNN0hyMGM7KQRGQr/d/i18Cora1fQmEk9v1491P0d0mi8lkZjIzAeCNN95444033njjjTcWgCi1rfLgxBff9/dxfD4VmZ2yuUc1P9ysvFRQhIhSjq/gQqCQkvxcbKO5xzcbXOtQYYQwhk+BKRK7ffJfJCgtj1iI57Q8QErRztn8p/iJNkdO+T+ZaSVIEGc795Cnwsd5J7oycxOgqnTnHvcEyI5ck5lGfgQ8p3OPfWRkvq7Q3OmhNH5lemwf/bI1dQOn51fVzZETDmGmBuXl3NMYBQWmg7mRQLk990yMwz0OW1F3cHSaezKGYe2MiE0D5Htzz8ckzv+2hXXA8WbuGRmD6xsUmwb0MPekDMEmfU2bPyAuLxHTyLghTfwVPH8Bk8cSo3AjLWayem9rNG4kO3jlsmOZ3aa+sbNu2cmMb1NfwKsVy87HqNRI0P1q96woGE3f3Nhx5p5kX+xHsG++Q6zUS0/Q+NxIvbPK8PJ2Em4gDlaolNludIXTYI1qxxl3F39AmM09V11sJ+NG2oJzT1YTzJ9gp2ohkrmnq4fNdIKj2FmVTmbVRNq4AT3PPWEdFGP6mz+B6RI90NTeKnjfxsbySQVncaLDtmVcQU6pEIJSDqu4vJ8nZdPYfw/YLUd03OIoEOf3tCOVj0URvliNk3yZcKtqsBgXKzuKX8J7GNFYujrutBqn/sv+3KwosCL48+iSozwrpycH0gUcEm+Cf6oTPF7U+A/Q2c+IP4wdeBsHzmeOCZZ4ckXbHXzW83P3SJcqNgqimJEbO5jUXdIGnzGsky1abBTy2bjZLFYT3zFXNuVmcn9AH3SmSPv0vlIPCGsWbrzF6xuFedyrCQ4uTYDPEraIl72Ht8DxDNxMHNXrDXycnpt0N/esO2IOcuIF+1NfMENIJ1vJopLYHaY++vRXsVPVwBTxw5SW4CrMvzskP1U52QnflKe6ZoDF7nMaL8tej8a5A1N4mIKe8+oEpwGF5ehRUzb3JHsDi3xs1bwydfwFeOzCmrWuqga0GjXmTtZj5DwDRyPWrLnDq3lnBhpvaY1a1TENxGhxjGQdgZw/QfcjGczTZ5KMAJ6Pk7pTzT0xI6D+KPYgXPdm1YKOEQWLfmsYtTaMUQDwMuSMkcXtvYI+boCMxwi9F9jJW3DTW5b7KqsKjhB9916IHIiMHhZ/nFfudn6DMBcctGP6QhpHge8NUePFnVscrgeG4hfJC1IjdXJlwI2wK5NZ1ng5y9NAAk9pIm6MIeZcCBr4cZI8Uv3d6Fa9dQYb4rhjh56hRdYsHsSNIoUKimF1PJeWVw9m+xgyOx6/fL26BBj7w6qzeHBIgk4MDxSdyO8Z/JNjk6wISPLLZ5F5j6v7sU6YR1+CROgDnDlON0MijjwGjJ1p0MHwGFYCkAbamhjL9SNZ2RHsJNbT5uDfyHkUpBwAR5EzRC1htwwFFvahw9DpABcr1eo8ppSKoDC/nBPrw938Wtz9lRwP3BcRsjxFTtFlXr9ix5Qsok7k8P4RZbezSSyQ4DCPP8vMc6+yYnUkZ5M+VGOxWJID2/1Mcv19gvzxkRD3THGs3suVnLghp4v44b7+J6u6vsAgKbKUfV1BHclhmwNrA4z0BEJFTkDqqedJUTa1J4EkJah2kMO4KJxdQybNy6K4NL2UMT2WRULU3hFUzAmCgNgnEvx75L2rR45dVz5/FnbsSo4FmXN9CdQr/qeWlScVMpbqwLNtpkpzSLRXzVljFDPXtlOgZAJDG9jq8z1VnoDLbNsDBcI+iwCLJOS/HWqSnw69Az47bxnDyAmta14LPoI8rMkpKAw95iOEcCFVEnEPwAqIOICSIkQP4CQgtVmgPs8AgTgAGQwROoIshISweEcItw+wi1agvUwdjdy/YeTIOTWpdEiypMjhkhxpgTQdZUJ7i4gLkhBjAsr6xDU8A5/7IK/ljYATFa5df8BzdZivpXP61QBEpDM3A8mhwmvsmgDE/EYOSK7i5ANIIhWgpSW4Lj+RbpAPGo2I7ELswXWwaBOFd3I6acxe1flnDVNjGDmCHphKbRZJJKWiIUdK0+2MzJc6R+WFI7fNDqeJC3Ea5XKLxFBQKXFXKx5fQIX1yJFLUhta3W4GkgMxU0uApyVtyQkT9r/b8KXkHNV0wSe9/T2C/RR4ZZxTLpdjmzaEBYg1yYFIX+loJdQOJQdtUgT5RVmDd3IeEjrkboUVOecHciRnTiFtKu/CJTntlyU5XJMcoW0k6zk3gyWnki9DZOp5S87pRg5GuCXnJjlSyVAhbR9J0BZcwrvkcH3J0Xc+9brdyKU+iBy5JWUoqOsGWp0T3JyKyt5dyfHaDBhRpPTQZHxQsfXCwmvJiQHUJUe7TtbSC1M8/f065EgXh5au+rndrRC7NhUUJ8AbcmgCriUpNCrCwm1iNlTykbfZ0aEtaWrJ6Ziix3XrZDUzsQeTIzkp3VI8kCMtPSI9B0whKFFDjlwzVqiiNGGp9DFwkFLW4SblyE5DRRWKVfzjSo7XNUhH9bixNeNbw8mRUtGso8ZC3lD55qX6EPjC0lbnKJW9DaQvlamuemIDPiGFu6JuscfSHHOYSP+hdTxFxo7dTDVNcrrZlmbISWvjBRPWKFUEHIxt6T4ol5BtGbCo/DDdN0tob4PUA+lR/S+iZED6Wa4qG8RkCyIbRAf1O3buRckZ3ALQKaIo9Bxz3WqzAeRA0ngJmNx+bp8hst/vmx4r7Ydc+Pt9e3OPUJ/7zbkIRrn84XoDSWsuk7zT6IVW/q2tmzM6hJy/oO7T++vR4w9Pv9vprwitRjsn3SAlP1qb77BOu58Pm0+SZR2CIa20f+3YvzTwdz8Bnzxr8OP3C4TmO8zSIifSHieP2U9sCHjyVOFHH3a6Td35Cge0yNFvWzxQ59SpMt5syfFaOqfUl5xh5DSZMlO3WbxBa7fSF/ChuxUDZdStlL/dknCvOwqfQ6vJ61H7FT5tGtGZHBWLkxab2xgs3wDbhzUvdHdRo+PwGMeBqWYjWhayvnzTZ4mrncmRa96WXpE6k5E0R24LQrw6Agj5IUoD6Eeuf3aBJzA9qXfNNqYSf3XI0U9uG0QOz5lcyaLJL+D3ip8Ikqjpoqwq7AKltZVu8oSKTjF1+G4m81crc5Lpv49B5IhSNUsWlvxXRXQvCn5Wd4W4k8OCZg5b54jkH7MCFFiGkmO0ihsnJgdDV8mMaspRnzdwidBpJv6DnBOifMfANpQqKLT0ncBn0DrzjKYlh1+kkIQIheltmaioa31q9p0cZQupqGMlKKWC9Nk7npCjYwNOLDlSg7BCokzbci51D1PT9+o7OSqGrEK+XqogzZPCwLpCOik6E5Pz+K2aCsylxdoc2H0nR50+oMcTSgN3kOhlsjP9oqoB5KjyFbcWhPR6yio2txSGZ+QoyTmfrjBQOajZ/Fa/W9kAcqgHUk4VVN3ugUL0Kf9zNZav5KiY4I0cpXMIEqLOzTGgcvQCFj0a5PQnR21SV79B5efZVBXv3g7N3OYYRHw8klOBJp+A+yYUMoZ6WYHxhOSofbR9GWrbyAO5UYUCSQiVocNyhLj8zp2c+lU7UnCIB9jwVaWb93bSz5HMT0Vmuz0yuzgD7YFc7WOphv+uVyP11QO23aYgvVrIzXGwNJyBl20jvWSHX4A0M1B65LliLgQmwd5JisyLWGdylMd6O+rAhIHowUP2MS6a7++/kMOrJgDDdA9Jng2caKYRpD33R1wn2aobH/bxqbCLDuRg34nvrhy+OPElbuEQlel3Pp9jSpx4B4njXHP8MFePHWIgsqqfnaORtvQcGEsDlsLKjxNr6/3QeI8KmT8m4mP+iOY31dGK+oeHEI66YcLIHbv6Lf4vhkIBcl4qco5J7pTW9n50NuFNV/9AjzaLpnsdy7cslGVCVPmDHS2InB4JgaPd78GpJAnhaW9z+gO8TxHsuH0Sl0JNz0zSNfQQNwDcq8hzvT3dtNCzR/thLK2zJPTt9pEuZj8ZDxj3LUQz4LUsHf1vQk1X0Z5/CMSAFjqv0LrsL/CqPzcqgDL3+McExoN6Tf5Ionkp0IGXiay7DenfGNyKIFqMC2QcYngPTvtVF5Ywcc2KZgXEWmCEG7mfr76J7RMgU9fzJK8nO8hch8DkxTxQPHQP/8bOK+1ZtDJ7Z66xzLv5gYVjup3tduHXdXYGJSPcsRcN6720EHBxHqeD9gavXXgw8ke7odt1VnCl6e/AqBr11kp7j9bqiGKUj36hp3350QZpBcCUx5NceZ8mAeXr2dkx5hQfi8lu/gLbJIdCMrSgY8ufqNMyqID52ZqOmQZpdrrkBNepaYuEwKTynTKb685pEKXex2KRuqPf8/XGG2+88cYbb7zxxhtvvPHGG0bwf1qYBe0MkoGeAAAAAElFTkSuQmCC;imageBorder=#7EA6E0;strokeWidth=4;" vertex="1" parent="1">
          <mxGeometry x="40" y="160" width="188.27" height="118" as="geometry" />
        </mxCell>
        <mxCell id="4CNYC6tnbti6a-UOO8II-3" value="" style="shape=image;verticalLabelPosition=bottom;labelBackgroundColor=default;verticalAlign=top;aspect=fixed;imageAspect=0;image=data:image/jpeg,/9j/4AAQSkZJRgABAQAAAQABAAD/2wCEAAkGBxAQEBAQEhIVEA8WGBUVFRcVFxcVFxcSFRUWGBgZGBUYHSggGBslGxcaITEhJSkrLi4uFx8zODMsNygtLisBCgoKDg0OGxAQGzAlICUwLS0yLS0tLS0tLS0tLS0tLS0tLS0tLS0tLS8tLS8vLy0tLS0tLS0tLy0tLS0tLS0tLf/AABEIAKgBLAMBEQACEQEDEQH/xAAbAAACAgMBAAAAAAAAAAAAAAAAAQIGAwQFB//EAEMQAAEDAQQHBAcHAwMDBQAAAAEAAhEDBBIhMQUGQVFhcYETIpGhFDJSkrHB0SNCU2Jy4fAVM4KisvFzwtIHFiRjk//EABoBAQACAwEAAAAAAAAAAAAAAAAEBQECAwb/xAA2EQACAQIEAgkDAwQCAwAAAAAAAQIDEQQSITEFQRMiUWFxgZGh8DLB0bHh8RQjQlIzcjRDYv/aAAwDAQACEQMRAD8A9hQDQAgGgGgBANAEIBoAQAgHCAIQBCAaAIQBCAIQBCAIQBCAIQGN9VgMFzQdxIB8FlRb5GrnFaNmSFg2FCAIQBCASAEAQgEgBAJACASAUIAQCQDQDQDQEatRrAXOIa0ZkkADqVlJt2RiUlFXbsjn/wDuCyTHbNnk6PeiF3/pa1r5SL/XYe9sx0aVRrwHNIc05EEEHqFwaadmSoyUldPQmsGQQDhACAaAIQAgGgCEAIDDaLXSp/3KjKf6nBvxK2jCUvpVzSdWEPqaXiOz2qnUxp1GVP0uDvgkoSj9SsIVYT+lp+Bmham4QgCEBUdb9OvY70ek4tMC+4Z45NB2YYk8QrLBYZSXST8in4hjJRfRQ839irHR9c4mjUP+DvorHpaf+y9SpdGo/wDF+jOhoLTdSyvDXEmjMOYZ7u8tGwjdtXDEYaNWN1v2knC4udCVn9PNdh6KPJUZ6UEAQgBAJACASAEAkAIBIAQCQCQDQDQAgPO9K6QqW2uGt9SbtNuQ4E8T+yvaNKNCnd78zzOIrzxNSy25IjaNXrWwgdi50iZYLw8RkeCzHFUpLf1NZ4KvF/T6aj0PpKpY60OkMmKjD5mNjh+yV6Ma8LrfkzOGrzw9Sz25o9FFVvtDxCoT09yQcN48UBIBAOEAIDFQtDHzdcHRnCAzQgCEA4QHD1q0ybNTDWf3nzdOd1ozdG/GB+yl4TD9LK72RAx2K6GNo7spti0RabWHVWDtO9DnOcJvQD94ycCFaTr0qPVehTU8NWr3mtfMxVrFWs8VJDSHXJY9pLXgEwbpkHArMakKvV/VGsqVSj1u+2j5l41W0wbTTIf/AHWQHfmBydHQzy4qpxeH6KWmzLzA4rpoWluvlztOcBmYUUnCvbgeuHxx8kB5nrC0i2V72d+ehAI8oV9hrOjG3YeXxaaxEr9p0bPaqD6znuexzyXlhc1zMcSwOJNyZgXjjxmCI86dSMLJaeN/38iTTq0pVLtq+tt14d3mcrTgp9vULHXmnvGDID3CXgEZgElSsPm6NZiJisnSPK/55npOjWObQoh3rCmwHmGiVRVGnNtdrPS0U1Tin2I2IWh1BAJACASAEBXdMa006LjTpt7V4wcZhoO6dp/kqbQwUqizSdkVuI4jCm8sVd+xzaGuj579Jpb+UkHzmVIlw6NurIjR4tK/Wjp3Fp0fbqddgqUzLcjvB3EbCq6rSlTllkW1GtCrHNBmwuZ1BAJAJANANAYrWwup1Gj1i1wHMtIC2g7STZpUTcGl2HmWjJ7WnGc4b5hehrfQzytD60WEA+iZuv3P/s7Xto8YvdIUD/3crX7rWLG/9jne3fe/z2K/pSe1qTnOO+YHmp1H6EV1f62en2NhbTptOYa0HmGgFefm7ybR6qmmoJPsRlIWpuLsm7h4BAPsm+yPAICFSmPVAxPw3mEBr2LRzKTnQSSRhJjCcRh0QG52e4kdZ+MoAuHf4gfKEA4dvB6EfNAULXq96S2cuzbG0es9XHD7dE/H8Hn+KX6ZeC+4ar26kwdk6nXfUfU7vZOc1uIaMYe3cTMZJi6cm8yaslz/AIGCrQisjTbb5X/Ji1jtrXg07tUPbUPr3oDQCI71V8nLEALbC02nm0tbl/CNMXVUurZ3T53/ACzPqG0m0VM7vZmcSMbzIy6rTiFujXidOFX6V+BfGsAyEclUF+ShAV7WfV70mKlOBWAiDgHt3E7CNh/gmYXFdF1ZbFdjcF03Wj9X6lMfoa1AwaFQnLBpcJ/U2QrRYik1fMimeFrJ2cWdzQOqlQuFSuLjRiGGCXEZXgMm8MzwUTEY2NstP1J2E4dLMpVdEuRcmsadkHbBiD0VUXg+yG8+876oA7M+0f8AT9EArrva8R9IQBDt4PQj5oBd7cPE/RAaGnbW6jZqrwIcGwCCMC4hoPSZXbDwU6sYsj4uo6dGUl85FA0W6i2++tTNZoAhocW4k5yFdVVN2UHY87QcFeU1dGV1GhVa/sWVGvb3u+9rhd2gQ0Y9VrmnBrO1bwNstOon0aaa7WbupVpLbT2c92o0gji0FwPgCOq5Y+CdPN2HfhlRxrZeT+xfFTHoQQCQCQDQDQDQFO1i1ZffdWoC8HGXMGYccy3eDuz+VphsZHLkqepSYzh8sznS1vy/BXPRK83ezqXt110+EKdnp73Xqit6Ore1n7lk1c1ZffbWri6GmWsOZcMi7cBuz+cHFYyOXJT9SywfD5ZlOrpbl+S5KrLsaAaAi50YDEnL+bkA2MjntKAVTCDu+Bw+h6IDIgBANAcHWvQptNMOZ/eZMDK805tnfhI/dS8JiFSlaWzIGOwrrRvHdFGs9tr2clrXOpkOvFpH3gIktIzVtKnTqq71KOFWrRdk7dwVrZXtBDC51UlxIaB945kNASNOnSV1oYlVq1nlbv3F71T0N6NSLnR2r4Lo+6Bk2epnjyVRi8R0stNkX2BwvQwvLd/LHchRScEICDz90Z7eA+v82ICQbGAyQBCAg8Qb2zby39PhyQE0AkAigIX90nll4lAEE5mOX1P0QGrpKwitRqUsi5pAJxg5jHdIC6Up5JqXYcq9PpKbh2nmjZpPcyozIw9pwOB2FXztOKcX4M8um6cnGS8UbrLfQYHXKbmkgjZ9VxdGpK2Z/PQ7qvSjfLH56nT1H0c41DaCIY0FrTvccDHACR1XHiFVKORbkrhdBuXSPZF0VSXgIBIBIBoBoAQDQCeDmMx/I/nBASaZxQDQDQCe6OJ2BADGRxJzP82ICaAC2RGxAKkZGOeR5jBAThACAIQGtbrHSqD7Smx+QF5oMSYwlbRnKP0uxpOlCf1JMnZrHSpT2dNlPfdaG/BJTlL6ncQpQh9KSMFpttOm71heP3c3HiGjElZjTlLVIxKpGOjYv6k3l+runwdBW3RSNOnh2khb2nKCdwIWHTkuRsq0HzM9Fw347ea0sdLmWFgyEICLngZkBAaJ0gxlQUoJJiMMpyGP8yQG53j+XzP0HmgF2Y24njj+wQEkAIBIDn6U0NQtHrs78QHDBw6jMcCu1KvOl9LI9bC0q31rXt5nOsuqdkEOIe/Iw52H+kBdpY6q12EeHDKEXd3fid1lMNAa0BrRgABAA4BRG23dk9JJWQ1gyJACASAaAEA0A0BGtVaxpc9wa0ZkmAOpWYxcnZGspKKvJ2Rw6mtdka4gOc8b2tMTwmP5zUpYGs1t7kKXEqCdr38jf0dpuz1zdp1Bf9lwLXdAc+i5VMPUp6yR2o4ulV0i9ew6DnR8hvK4kkGM2nP+YBATQAXAZmOaAXabgT0jzKA1qfbCq8lo7I5RBMwB8kBtscDl+/UbEBJANAY6xw6t/wBwQFbt2mXVnOZRdcotMPqjEuPs0+PHrumdTw6ik5q7fL8lbWxWZtQdkuf4Oa61BktYLs5mZJ/U7Nx8lLjSvrL54Igyq9hrOrE7V2yo55hX0sYzG3ZdJ1KZGN5u4/I7FxqYeE+R3pYmcNmWbRlvFZsh0HaABI5zKrKtGVN2Zb0K8aqujeNMbcRxJjwyXE7kWifVF1vKCeW7n/ygE+i2WG6JxEwJgg7UBKC3LFu7aOW9ASBBxCAEAIBIBIDHT2jcfI4/OOiAmgEgEgEgEgGgGgGgBAea6waYdaahM/YtJuN2R7R4nyyV9hqCpR7+Z5jF4qVefctje1e0OyvRdUNM1XCoW4Ouw0NafaG0lccTiJU52Ttod8Jho1aeZq7v2nH0nRFKvVYyQGPcG44iDhjvUqlLPTTfNEOtBQqyjHky76paYNemW1JdWZAJjNhyPPDHoqjGUFSleOzL3AYl1oWlujvy47I5n5D6qITwuE5k9MP380BJtMDIY79vigJoAQEXsBz8cj4oDStGk2U3XC4Pf7IxfH6W5+AXSNKUldLQ5SrQi7N6i/qrN4H6iAfA4rPQz7DT+pprdnK1lt76lJtKiLxqODXObiGt4kZTMY7JUjDUlGeapyI+KruUMtPW+mnI4teoGNbTZ6oED5uPEnH/AIVhTg31mVc5rZbGpeXaxzuF5LC4XksLheSwubFgtpovDxl94b2rlWoqpGx1o1nTmpF7s5vgOJnIgbOB4qias7Hoou6ujYWDJjrZDm34gICaAxuZtGB8jz+qAGvnDI7QgGgBAJAYzg4cRHUYj4nwQEkAkAIBIBIBhAAQDQGppgkWe0Rn2dSOdwrpRt0kb9qOOIv0UrdjPMLLQNR7KbYvOIaJwEkxivQzkoxcnyPLQg5yUVzLPoM1KLKlNtaxuaL1XFznEPaBBMRDcBjjCr6+Wo1Jxl2FnhnOlFxUodu99fY4+krG89raDVoVJdLxSeXQXkxgRlgdqlUqiVqdmvFdhDrU5PNUck+2z7ToahE+lOGzs3T7zIXDiFujXiSOF36Z+H4PQFTnoBoBoBoAKAqOltNur1H0aLjToswq1R6xPsU+OBx4E7MbGjhlCKlNXb2X3ZU4jFuTcIOyW7+yOTUtQYCymLrdoG073OzeeanRpX1l88OwrpVdLR0XzftNR1Zx2rsopHLMxCoRtIWXFMXYOqE5olYXFeWTFwvILheQXC8guF5YsLlm0RpsNpMYcCBEkjEA7AJOUZgKqr4WTm2uZb4fGxjTSlyOhT1gpTBeBzXF4Op2EhY+k3udEWlr2Egg4EiMVGlFxdmS4TUldM2VqbggIPYDz2HaEBp2nSDaTmseDLtoyiYkoDcQCQGOtlO7Hpt8pQE0AkAkAkAkA0A0ABADmggg4g4HkUvYw1dWZ57X0cLNWqUajjTa6DTqXA8XATnJEZgGNo4hXSq9LBSSvbdXPOyo9BUcJO19na+hj7ai+WiqaZbje7Jhvwxgyv4GQSOeYWck1rlv3XemrNc8Hpmt32WuiJNtVAntL5Y1riTT7Jhvh1V7hBveyQDujCVjo5rq2v33emiM9JTfWva3Ky11ZZNSdEuo03VagipUiAcwwb9xJx6BQ8dXU5ZY7L9Sy4bh3Thnlu/0LMFBLIEA0A0BxNcdJGz2R7mmHuhjTuLszzDQT0UvBUelrJPbchY+s6VFtbvQp8djSZTGDgJd/wBRwBd4YN/xCt4LPJy+W5FFN5IqHZ+vM1Ly72ONwvJYXC8lhcLyWFwvJYXC8lhcLyWFwvJYXC8lhcLyWFwvJYXNzRmknUHyMWH1m7xw4rhXw8asbcyRh8TKjK625o9CsNYPpscMZAPiF5+UXF2Z6aElJXRnWpsQqPjiTkP5kEBAURILgHOzkjLluQDNOMu7yy8EBFz7oJdkMSRuG8ZjzQN2PP8ASmma1sqFjHFlHGBJHdaCS58YnAZchE53VLDwoxvJXZ52viqmInli7L5qzl2alWZfqMLqZYe9BLTIIBGGZEiRx5rvJ03aL1uRYKpG8o3Vi8aq6bNpY5j/AO8yJOV5p+9G/Yem9VWLw/RO62Ze4HFutFqW69zuFQyeIoAQAgGgGgBAYbZY6dZhZUaHt3HYd4OYPELeE5Qd4s51KUKkcs1dHAq6lUCZbUqNG7uu8DCmLiFRbpFfLhVJvRtG5YdWbNQ74BqPEEF5mIM4AABcquMqVFbZdx3o4CjSd933ndUUmjQDQDQCc4DNAUfXS0elinToRWax8vLTLQYIgv8AVGe0zjwVrgI9C3KppdafxuUvEZqsoxp62evZ67HH0nUl56nxJVjRjaJU1ZdZnXsGqtWqxlTtGNa4BwwLjBEiRgolXiEYSccuxPo8MnUipZkr6m7T1QYHta6q4yHHugN9UtG2faXB8Sk1dRRIXCoqSUpP56nRpaq2UZhz+bj/ANsLhLH1ns7eRKjw2gt035lf1vsVKg+i2m0MBa4mJxgjep/D6k6ik5O+xW8SpQpSioK25xxSBpXwTevOBGy4AzHnLx48FLzNVMvL76/gg5U6eZb39tPySp0Aad7G9OWAFwtqGcs5YenNayqPPbl99PybRgnC/P7a/gxGkQMxMTdnGInlljEyt1NfuaZH59hOpZ3NLg4tF0w7GYOwYA4mDgN2MLCqqSuk9TLpuLs2tCJokSSQ0CMTMG8CREA7AfBZzrkviMZGtWw7EjMtbiQJOZGcEThxyTOuSbGR82kZ6dlF0S4NdNQEGcOzaDEBu/iucqrvotNPfzOkaStq9dfbyNMuUixHuXbVfSdPsKbC9t8SLsiYDjGHKFRY2hJVXJLQ9DgMTDooxb1LAawOWJOQ/mxQbFkncbGRicScz/NiwZJFAIoDT0wxzrPXa31jTqAcy0rpRaVSLfajjiE3SklvZ/oeZ6JrllVpaC4u7oAgmTF2Ac+9BjbCva8c0Hc8zh5uM1bnp88ztaWcadIwHEQKOLXAAgOiC4CW3XVAMztLsgolBZpr1+e34JuIeWD9Nv403tv3sjqIwm0vI9UUzPVzY+HktuINdGl3jhafTN9xfFTl+JAJACAaAaAEA0A0AniWkcCgJNMgFASQDCAEBQNL6WNtq1GhxFhpm6Q0kGvU3Xh9zbhsjaRF1Qw/QxTt13r/ANV+fnaeexWLdaTSfUWn/Z/g5dqt5MNbAa3AACGtG5rcgp1OglqyuqVnLT+DTc8nMyuyVjlc9L0HamizWcQ7+2zJjz90bQF5nExfSy8XzR6zC1F0EPBcmZ32pvaswf6r/uP30/yrmovK/Lmu86Oos632fJ9xm9Lbuf8A/nU/8Vrkfxo36Rd/oyna91g6pRiR3XZtc3aPaAVxwuNoy8ij4vJOcPBlfpWmAwRIBeTxa9rWkeDTjxVhOne78PVXKyFS1lbt97EhbB3sMCRA3NayowDjg4Y8Fq6Lsvmt0/sbKsk3p/FmvuQq1mulxBvEGRsvEetOfGPNbRhKPVW3v4fuaynGWr39vncSqWkONSZAc4vEYkGXbNuB8liNJxStyVjLqqV783cbbWMgXMAAAIxMCSQ5sgGSZ4cVh0Xzs/nIyqy5XXzmKrXY/MFoExdjEHGNgBmTI35JGnOOzv4/PnaJVIy3VvD587Bm2yZI21CY3VGhuHKE6FpWT7PYdNd3ff76GsXLvY43C8ljFzsaE0++g4B5LqWAM4lo3g7uCg4rBRqK8VZ/qWGDx8qUkpax/Q9Do1A4AjELz7VnZnp4tNXRMrBkRQCQFM05qs8PNWzGJPqTdILsDdOUGcsIVnQxscuWr6/kpsTw6WbPR9Pwcqzas2wktudm04OLnNAgEHENJJxAOSkTxlFa3uRIYDEN2tYumg9EMstO6DeecXuyk7MNgGwcVV168qsrvYu8Lho0IWW/NnQXAkggEgAIBhAAQDCAYQDQCqPutc6JgEwMzAQGroq19qyYux3c5yGaA3UA0BzdZrQadjtD2mHBjoO4kQD5rvhYKdaMX2ojYubhQnJdjPN7ObllpAbQ4n9TnEf7WtHRejSzVZN/LL8nlG7U4r5qzWld7HELyWB6rq+f/iWb/pU/9oXlMT/zT8Wexwf/AI8PBGw/+6z9L/jTXNfS/L7nV/WvB/Y2FqdCjf8AqGftKH6X/EK74T9MvL7nn+NfXDwf2OXoWabH1w9lN8hlM1CQCQQ6pkD92G/5lSMV15KnZtbu3t7/AKEPCXhF1bpPZX9X7aeY6lkpsr1Ja11mgVQ8ucGtoumIukXjPdAzJbzWFVnKlGzaltbTVrx9TMqUI1ZXScN73dkn4b9iXcadqbTNIVabS29VexokuN0MYWjiZJ8V2pymp5Ju9kn7u5xqKDp54K15NW35K3mb9psNFhe26ZNpqUGkuMMYBThx3kF0/FcIVakknf8AxUtt3rp52JFSjSi2rf5uK12WmvlcxW+y0Q2tcLb9NwAumq4kXrpFS8wNaduEYgjFb0alRyjm2fh46WdzStSpKMsu8ext87a3Vl5HIlTbEELyWAXksAvJYBKWFz0XU2uXWWnOy83o1xA8oXm+IQUa8reJ6rhk3LDxv4ejO6oRYCQAgMbsXAbsepwHz8kBJAJAJAIoAQCQDQDQDQDQAgJBAYqbZa3YQBB6ICbX7DgfI8vogMiA0tNWbtbPWp5XmOE7jBg+K6UZ5Kil2M5V6fSU5Q7UeYNYRTuEQ5hyOwSZ8CV6aE05XXM8jUptaPkYri7XOWULiXGUzUbRVZ6lR7P0uc34FaSpwl9UU/I3jOpH6ZNebNylpy1tIIrOJEjvQ7AxPrA7guEsHQf+JIjjcRF3zs6FLXC1tz7N/NpB/wBJC4S4ZRe115/sSI8VxC3s/L9zQ07pZ1rNNzmBhaCMCTMkHblku+Fwyw6aTvcj4vFPEtNq1jnuLiGtJJa2bo2CTJjdKkpJNtcyK7tJdhmo22swBrar2tGQDiBEk/EnxXOVGnJ3cVc6RrVYq0ZOwC21gXEVXgui93jiQIBPGMJR0abt1VoFWqq/Wepiq1Hum84uklxkzLiACeZgY8FvGMY7Lu8jSUpS3ff59pOvaarwGvqOe0ZAuJG7qtY06cHeKSNp1Kk1aTbRguLpc55QuJcZQuJcZQuJcZQLUuMp6RqvZDSs9NpwMSeBcZjpMdF5nGVOkrSkj1mBpOlRjF/LnYUUmCQCQGOlkXbzPTIeQ80BNAJAJAJAJACAaAYQAgGgGgFUMAngUBJohABAOBQEZLc8W79o57+f/KAbzJA2Znls8/gUBVNatX6jya1CO02tOAdyOw88DwzVhhMWodWexWY3Bup1oblONYsN2tTfQf8AnaQOjsiFcRqxlrF3KSVGcdJKxL0qj+LT99v1W9znlD0qj+LT99v1S5nKHpVH8Wn77fqlxlD0qj+LT99v1S4yh6VR/Fp++36pcZQ9Ko/i0/fb9UuMoelUfxafvt+qXGUPSqP4tP32/VLjKHpVH8Wn77fqlxlD0qj+LT99v1S4yh6VR/Fp++36pcZQ9Ko/i0/fb9UuMoelUfxafvt+qXGUkytTcYa4VHbmd8+DZK1c0tWZVNy2VyxaB0A9zm1KrbrQZawwSTsLowA4eMZKtxWNTWWn6lrg+HtSU6noXOk25Ddmzgd308NyqWXSMqwZEgIVjhG04eOfgJPRANACASARQAgEgEgGgGgGgBAY7TaWUmF73BrBmT/MTwW0YuTtHc0nOMI5pOyK1atdKWLWUnvGIkkN6gY/JTo8Pm1q7FbLisE+rFv2OlonWahaHBmNOocmujE/lcMDywK41sJUpq+6JFDH0qry7PvO0TtUUmkb5OQ6n6bUBqUNHllV9UPm9OBG8zsKA2y8ZOEfDx+sICD7KCtlKxq4o1bVZaTGOc8tY0DFxgQtouUnZGklCKvLRFctGstlaYbTdU4wGjpOPkpscFVe7sV0+I0U7RTZOyax2R5h7XUuJAc3xGPksTwdWKunczT4hRk7STRY6VjpuAc265pxBEEEcCobk07MsIxjJXRP+nt3DwWM7M5EH9PbuHgmdjo0H9PbuCZ2MiMfodPgeQn4JnYyIi2wRk3DjHl+6Z2MiJegj2P9v1TOxkQehN9nyn4JnYyIXobN3+k/RM7GRGOvRpMaXEiB4+CZ2OjRksVmYWNc31SPhgsOTMqCN1jAFi5tYbhOGxYMnG01p+nZRdP2lWJa0HZvcdnz+EmhhpVdVou0h4rGQoabvsKvW1wtTjIuMG4NnzcSrCOApLe5VS4nXb0sjYsOuVQOHbMD272d1wnbBMHyzWlTh8Wuo/U60uKTT/uK67i42S1MqsbUY4OYciPnuPBVc4Sg8sty5p1I1I5ou6Mq1NwQCQCQCQAgBANANANAUPXa3l9fsZ7lMDDe9wknwIHjvVxgKSUM/Nnn+J1nKrk5L9TQsmhaj4DpY4+q27eeZBIJbIuiATvgYArtPExjtr8+fkj08LKW+l/X579xp2qyPpEXhgZuuGRumDB3g5jAjaAusKkZrQ4zpypvU9F1ctZr2enUdi/Fpn2mmJ5kQeqo8TTVOo0tj0mDqurRUnvt6HVXAlAgGgIXI9Uxw2eH0hAec60aXdaKpaD9kwkNAyJGBdxnZw6q8wlBU4Xe7PNY7EurNpbL5c6Fj1LfUp06nbNAe1rouExeAMTe4rjPHqMnHLt3/sd6fC5TipZt+79zRter3ZsrO7Rx7MEm9RqMBh0d17sD0ldYYvM4q2/emcZ4LLGTvt/8te5m1P0w6jVFFxJpVDAHs1DkRzOB5ha42gpwzrdG/D8S6c8j2fsz0C87cBzPyH1VMehNXSFiNZgbfu4zlh4TPmgMtNgaAHYwALxxmOeRQGwgBACAUoAQGG0MD+4RIOJ5D9/mgG2g0AAC6Buw8wgHB2HxE/CEBgtlq7Km+o5uDWl2B3CYxhbQi5yUVzNKs1CDk+R5lRPpFoBq1LnaO77zsn4bhuwV/L+1T6i25Hlo/wB6r13a71Ze2aoWO76rnfmvunngY8lUvHVr7+xeLhuHtt7lK0/YqdCu6nTf2jQAdhLSZlpIzI+atcPUlUhmkrFNiqUKVRxg7r5odHUm3llfsSe5UBgbntEg9QCPBR8fSUoZ+aJPDKzjUycn+pe1TnoAQCQCQAgEgGgBANANAef65WUstTn/AHagDgeLQGkeQPUK6wM1Kll7DznEqbjWcuT/AII2bSNNrGDtLjg2JDDeBLCxwDhsOB4FoSdGTb0v56b3EK8VFdazt2a7WZoaUtDXuYQ6/DTeJBEuNSo854/eGK70YOKaat/CRHrzUmmnfT7tl81UsrqVlphwhzpeRuvHDyhU+Lmp1W14F/gKbhQSfPX1OwoxMBANAY7QSGPIzuujnBhZjujWf0ux5C3JemPHl0sDNHdlSv2ktfcbeHbvbDrokROGOxVNT+ozu0dL/wCq/BdUlhMizT1t/s/yaWkPRuzrxVaSAezi1VKhd3hE0yAMscyutPpM0dPHqpe5wq9DklaS7uu3fyK3SJDmkZyI5zgp8tmV0fqVj2FeaPYBKASAhdI9XLccum5ANrweB3HNASQGppPSNOz0zUqGBkAMS52wAb10pUpVJZYnKtWhRjmkU60661yfs2MY380uPUyB5Kzhw+CXWbZTT4rVb6qSXfqbmiNcQXXa7Q2T67Zgc2mYHGVyrYCyvB37jtQ4pd2qK3ei3Sq0uAQHO1iYXWS0AZ3CfDE+QXbDO1WL7yNi03Qml2HnWi57anEzJ9WCcjkHYO/Sc8tqvK30O55yh/yIsFho0alVlI9jBvS1nb0nO7pF3sXGGuxn/EqDOU4wctfZ+5YU405TUHbwWZX7rPYw22nTq2Z9U0RZajC2m2+Xd5rGuN1ogd/YZGPNb03KFVRUsyeuneaVVGpRc3HK1or31tyXec/Vhhda6EbCSeQaSu+LaVGRHwKviI2PSVQnpxIBIBIAQCQDQAgGgGgNXSNgp2hhp1BIzBGbTvB2FdKVWVOWaJxrUIVo5ZFVr6l1J7lVhb+YFp8gZVlHiMbdZFTLhU79WS8zoaJ1SZTcH1Xdq4YhoEMnjOLvJcK2OlNWgrEjD8MjB5pu/wChZpUAtAQDQAgHKA8x1g0YbNWc2Ps3EupnYWk5cxl/yr/DVlVgnz5nl8XQdGo1yex3bDrTZadKmx1BznNa1pN1mJAAJxKiTwVWUm1LfxJ1PiFGMFFwei7jSt2naL6dZoFQl4IaHMohrO9OBYL2WGMrpTw04yi3bTvepwqYunKMlrrtdRsvTU1tVdGGvXa4j7KmQ5x2SMWt5k+UrpjKypwtzZzwOHdWqnyWv7HpEqjPShKAJQBKATgDmgISRn3h5+G3ogKLrzai+0NZPcYwR+p2JPgAOiuOHwSpuXayg4pNuqo8kji6PsLqznNbAuguJJgQPmpVWqqauyFSoyquyMmlLEKDhTkl4HfP3Tjhd27wZ2hYo1HUTlyM16SpNR58/wBi8an2k1LIycSwuZPAZeAIHRVGMgo1XbnqXvDpuVBX5aHaUUnCOOGxA9TzjWHQrrM8kAmgT3HbvyncR5q9w2IVWNnueaxeElQldfTyZqjS9pgDtn4TEuJIkEYE45Erp0FL/VHH+prbZmO2aWr1hde9xbDG3QTBuzBgnE49TCxChTp6pCpiKlXST7NPD7lr1S0K6iDWqCKrhAbtazPHicOUc1W4zEKo8kdkXHD8I6Szz3fsixKCWYIBIBIAQCQDQAgGgBANANACAaAEA0AIAQGvb7FTrsLKjbzfMHeDsK3p1JU3eLOVWjCrHLNFXtOpJn7OsLu57cfeGfgrGHEf9o+hVz4S79SXqSsmpWM1asjcwRP+R+ixPiOnVj6mafCdevL0LTZLLTosFOm0MYNg+JO08VXTnKbvJlrTpxpxyxVkZlqbggBACAEASgKbr1o515toaJbAa+NhBN0ngZjoFaYCqrOm/IpeKUHdVV4M4NHTFVjQwXbgBaQRIcDvx45iFLlhoSbbIEcVUiklsa9prvrVLx7z3GAGjacgAP5iukYxpxstjlOcqs7vdno2gLCbPZ6dM+vi536nGY6YDoqPEVekqOS2PS4Si6NJRe50FwJIICL2ggggEHMHEEcQsp22MNJqzORW1ZsbjPZ3f0uc0eAMBSY4ysuZDlw/Dyd8vo2jZsOiLPQM06YDvaMud0LpI6LnUr1Kn1M60sLSpaxiby4kgSAEAkAkAIBIAQDQDQAgGgBANACAaAJQDQAgCUAIBoAQAgCUASgCUAIAQEXAEEESDgQcQQhhq+jOHadVLK8yA6nwY7DwcDHRS446rFW3IM+G0JO608Db0boSz2c3mMl/tON53TYOkLnVxNSppJ6HajhKVF3ite06UrgSRIAQCQAgEgBAJACASASAEB//2Q==;" vertex="1" parent="1">
          <mxGeometry x="274.07" y="661" width="196.43" height="110" as="geometry" />
        </mxCell>
        <mxCell id="4CNYC6tnbti6a-UOO8II-4" value="" style="shape=image;verticalLabelPosition=bottom;labelBackgroundColor=default;verticalAlign=top;aspect=fixed;imageAspect=0;image=data:image/png,iVBORw0KGgoAAAANSUhEUgAAARcAAACDCAMAAACQja8HAAAAolBMVEX///8Ab7YSn9sRl9AEe78Nk9K/2+1/t9omk80/k8gJh8gih8MPd7rv9vry8vKfyeRfpdEvisPP5PHf7fav0ugfgb9PnM2PwN9vrtYQmdYLjc0Ae7YOj8sCdLlNt+T4+PjE5/Yhpd1OXGRrw+k8lL7U4uqn2/K8wsVveoGY1e+Jz+0Dgr210eM/seKxt7tkcHebo6dUqNBvtNYAcrF+vNjj6u7LKpNJAAAHuUlEQVR4nO2c2WKbOBSGEWYJWwCzu3YmbaerOzNtp/P+rzbS0U5w7MQ0toj+K5kQgr6cTQcZx7GysrKysrKysrKyegFFSFVw6du5Glku04rQjctVWi5ChIs/DL47DJaLIsIF+b7nxrHloshymZblMi3LZVqWy7RsPprWa69fAnSKLBfLhQpzEf5ygxIxTo76UVS/+M2+oAgXf+NuBjcGLhsfD4YNcIkHPPD9aS4hQm328vf7UiJcYs/1fBcBFy/GA5yekyN5ek3cq1wumOdyiZDn7xYM5plcsLkM7pLBPJNLgTwckDGY9hI3/QJ6JpcG+SRT+QgtNCsRLrja97FXABcY4APJo+uAirgRkYeai9z271Eg1SFsFUwJasS4QYlyvFN+Ay6AUlraDIuq+U6qcQ+JXCCE8EINpr/0bOYTQk3C1CDEh4mHUjFOkaeMxekJ5xIzLj5KiP2tLz2lWYRo1GSR84R1gDjdHXMZhB2VvfEehSDTbDZu7BMumxgPXA+4xBs88GPg4vl4gM8q5enu2I9c1cVKw82GcEEkA3vA5XieFqczLiLu4gCTbFdEW+yGCIWXntpZOpuLyNOuu5La7lB06amdpbO5OCUPMCuVi+lJ+3wuHdoNYywrz3BzmYFLltLIq2KJETI/7p6Xp9dFChFGxZKYHHWrkAjXcjdMeDY3cuyJsSdPuWmUMZ58GGEoaOfr5oKzUXHp2T1f3VlLACnP17xoS3K0yQuCEO28MxXHMXcr7Dxx3HgECmqMTkW4gF+t3JmEDYXbT2t4G2ZOLgOJtQ0OV7XhaciZlws2l53BKUjTjFwgNe8W0veej8sA5mJwatYUIm8mLrSSqy49oZkUEC5zgFktKbrA87BZuND10FKii0OWRtuZuGwR6i49m/kUoWQGLnRBlFx6MjOqfyTA/HXvOB/fnojF/K6CpvqRAFM5n/527k/DsjW5qzClFG0OcLlzPr3759Y5ajArmosM782NVRx0pDvn87t33527U7B4KF1OLgIFBx3prXP7+buTnYbF8A73hBqyFJgE88W5dZz3p2HJLz2N2ZUfjrx3X78eiS4cy7JiLlWDmgdgVsM0hwNYlrJc1FRDzauC2e7f7E+gMiwaC6l5dysJZpW8wfpxLA3xLvduUeW/pmqH0v1+v8Xa7wmU/c/KqY7VLfxR6wJDLhf2pH/fcO1/0J71xxOMBRf/6ZKq/7F6hNo/sX79qmVn6ZEMLfYrLHrvu0OqXhTeYv2hHjwERj47S5caWoQwmOK/MZlJMPKpPIqW0rZ8RNiVmm+3IzJfDkDZNsY/UTxZdYpN5sMtRcPZ3MusNIinzxvyoLVZbhoaqSLvpuBkAA5W9n6lC6Cg5NVQIQqIe0S5REP04afcphADlLRYcm6eVB7Rrbf5N5XMr7fbbdwAEwzF8Efyz1TVl2xPQsTViG0uUfg6Yu20qryHLVDaFuUozF+d90wqCIKabNoIlrLb38rKysrKymoBWj+5LqleQ7kbPXmreo7r3t9zL1ekipT3T/sVslBa/KoxeDoXZPw3Fk+Q5TIty2Valsu0LJdpWS7TslwUVSFrbK91LkEBXd2oGz1uzlvS0Gxa+lhE55L1qdzLUBekuEnlBaqIbIvJOuiINsVVF8pZLxu2US65rJW3mqv2UMsub0PqOe3n8FCFX6AUJ6bshILsAAnlBa74gdNaNva54HiuNbnlK8UK7dRQ45LRH6b0AtqJEVxAf4E8uuL3K63HPX7GJR8d42CK0fFK4cItKTx4gTGXq932nFFbb4ouF4+ICJc1m0yfdwU1KLo2DKlBtGEQtjDMBZeMHmDbPNirRqOw7nqKi7ysjXPBf68Oo/R6XwUTyn+w43Sp4AKMUrocZAGITLeik6U7OUgASoUfcb+je4IygFnSwJrRv1ILLv217xvKYDIiLTCnYk7QiLuHjyRqgBfJjZZrEjeBS8VmzFDSr+yX+gUazuWKoy0T3K/Sb+kYl1bDxT7XTqbjogICzFgK/jNib+qXAwDomnIx4O2H7ej2qf/Quar7bzPKL2DuoAkJyT1BcH6rvM8up94GXK7diRxq11pOgEhAw4i2S66EE8OpaUku8krTL3gu4O9db26WYjFTqgYuwciNqB9QLg+mpU2caZpLBFxM2Ac+Hxda1/BQNc2lBy4mrKUe+FH/PD/ChQgN2SzVTHLB6d0ULpNxtyHf49PTRkX/3YEydSFuc4UKRvMqKVO45KP779hnlpeFIvoZ0sz4u3nCFwEM2wEPee3hRl5TuNC6TlgArevWzA9SMS/ARQILTF0aUi3qOrhYKcEAcFnXVTUdmsKFrQNYXU4/wLTBQNiG9oyvhPg6gC1rSE+hUWM3BUPrPnUdULUcsjFcqMGThWDY0vUhdRO2IigL9mIxHp7ZK7miPqS9LJy1JBenSoWZ8IVniC+cijBuDpdMNo+QEh9owlZ0oM+AKSpcGE4IWOM+A5iOOVxGYOQXhwKtMROJUNFrs83H/To4CkO9sUWDu0FccFiREyiUXFO1kpZaywSywQfxg5wmMw8xk5RdQHahUhbaCVRznmVnHYktadSNEmsFsaVs81FmrguoB9mrl9dto7V/G/nliTVs+S0LcaAqUpNf7GdlZWVlZWVlZWVlZWVltTj9D5dEcSecKg8kAAAAAElFTkSuQmCC;" vertex="1" parent="1">
          <mxGeometry x="530.5" y="690" width="129.91" height="61" as="geometry" />
        </mxCell>
        <mxCell id="4CNYC6tnbti6a-UOO8II-5" value="" style="shape=image;verticalLabelPosition=bottom;labelBackgroundColor=default;verticalAlign=top;aspect=fixed;imageAspect=0;image=data:image/png,iVBORw0KGgoAAAANSUhEUgAAAPwAAADICAMAAAD7nnzuAAABRFBMVEX39/fw1rf////TODMzUGEAAAAjHyD7+/tta2335M1JcouBsMT43b0iHyDaOTQgHB1eXF3c2dgbFhciGxoWEBHwPToJAAD/7NQAHR/g3dwdHiARCgyGhIUSHh8yTl40U2R8e3uWlZUAAAru7u4PHh/l5eVEQUIvLC0XFBgAAA73PjsgFhMsPEfT0tKqqan03sTCrZU8IiLdxam9vLytrK05NTZUUlPJyMhRSEG7NDBEaoE2MC50Z1uBc2SnlYHMtpxhJyZsKCcnLDIYAwAuQU2Pjo6aiXeNLSzINjJSJSRDIyM8XnJYc390cnNlY2WTh3tgVk3fzroAExd7KiigMC16KijFtaSqMi4xISFlhpR7prmilYi0pZZKSEpEPTfDs6J6cGY1DQ1IEhFrGhgmBwZbFxV9Hx1EEQ9ulKRLXmg7PkRSZ3EnBIpMAAAZl0lEQVR4nO2d+X/aRtrAsewZkRYxRsgykjgFQvIBJpx2fBN8JCkEJ06cNsXd3e522+7///v7PCMhDoPj7XbfCK+fT2qDkKm+ep55rhlJodCTPMmTPMmTPMmTPMmTPMmT/AkiisJIRPFrH87/nwB3KFbLZcODRqNRXO2elUt5UfhfOAFAXsqtyoQYiiIzEFkxVEKK2Vr+sfOLgpUrEkNmlFLmOIZpGo77RiFyt/SY8QWxtkoMZKXMIPsHbz+DHPZvDb4R+Jsl4Wsf439JRLHcIDLl6Kb09mrdl52Pb3eJCfwy6YYeo/JFoWYTWVEVYDfY52frz8Zlff3q8y1xJGrQx6d8UYg1iULsbC1nOObbKXSP/+MBcSgjtUdGL+S7xCDNsmbVB6R/NULfAVnyZGdn/apPGCPlx0QvhnKAvlqzrBacgx/XffClOxL50WGU5B4PvVBqELVRB/QkJbue2meAu/RV23lE9EKOyGpS00pnq4y8vR+dyz7QPxLLF7sQ3mqWVu+FKfFM/j70paUqBct/FF5PCKtKsaTFznrhIvlp/YtqR8s/3mBMjS1+vBfOiDKIabFsL9zz9P4ldqCvECrbX/vQ/2MRS0RuAHs3HO7q7nj/IvrSzrP1Q5Ma3UU3fGFVMVqalgyHw8XdB7NDvrMrU9JabMMXY8TIWbUwtRs2uZqw+Z159g96v4Jyx6Fyc7FVL+QMFraJoqiqfLs+xg6Ez66udiIz4J896xPTMKACIKVFVr2YgypGVkijm6tRsjMyenj11iFk42gG/fpbsmE6WPYqizzqxVWCRWqvplmWBb5+xL5+ZZuMOQ6pzoC/PahUzncJ4JOvTfDHReiqULwWW5ZWKifDA/Ptumf0O+sfiew4uwcH+zPgl6qRyFIkcox5Xm1R7V5sgd7Vrqa1kr1eONwE+KHirxx54xwAI7PGvCeRpb6zuHYvrMpUzVpaDsjDHH7o7db7jnN8D/dQ9uXGgmpetCBLa1qY2nnwnz3enStiPoQ9UjGJtpj0Yl2laktLeuzhAakMod6S8weww477izrohawCii8P2cMN37NHDuyHoMOOh4ta1wtFpiQ1nz1sO762K7PC+yz4I7KgHk9QmFqvj+Cdvk884eQrM6hxn7ew0zEpLia8SKhaS/rsPXP2OI+8rYy2j+2xgylAlbCFHPNCCeG7PvwqmaViSPF/2h1ZxLm/z7P1/iFsN0n+a4P8ARFaKqNGzWcPN2dlspjt74w+iBwceCcCitrPBDY4xFo81Qs1TM2N+gh+IM9QPJ+q6PvOIHLujD64gngIsW7xpm+EOmGSRI3yCL64P2PIo+aB0h/1FeLFAbSIvrMUuZXZoqU5qHeJPpeMcjfc8/x98XaWv9vhqh/Ry57qMe2vkMPILZPZYhm+0CJMLyxfpJSzJmWM2U0c83QGuxv0qn5lGzk0+aivnh8e9CkjS32ZynZ+gejFmMqkwuXmRYoqjEHpymS7B95+hsOrHB4dV6sV2w+DVROtAJIbB8Q8ihw4OlWKizNpLeYpkxJ7m5uvdcpMuf+XvikzGg7PCHWRvomywXy7B9U7eJJ2CdnoH0cA/lWKGr2FcXpiU6GJm83NiwJlzo/PcOXBrsMaXfvw7qCvmCaqmIx9RB2M+5FqFTOeyMG7vdMUJWcLQi+cEZq42FxboxJjfO0F+DTK5PBghruPVI8ODw4Ox3M8OB+jU4Hw0Vc6Ja2FoMf2TeoE2C8TlHxcX/+82/8JfpryapPM9nhT7ZzI4Qbx655IH+CXJTiNC+H0YMDrn9bW1javC87B+vpb8FykH9nZYDY1j2fRz3AEjum7gN13l8vRvYKkrC6A6oWsQROXAL/2PmX+tH7VP3acDfDlMOod8jB4nKF2qi595DaxvLwcfV+gpB54ejT6Ag74teiHlHn1bAdytkOIZEvn7Pag8rAiHuOdQ136iCNFkf61vgCGLzaY/hz1Ho2+TzmQvkXOTZxyrdzfqJ02/OMNoOcvzecIvwyGb2QDrnqhTFyjjy5HL7jmI4cQuCL7D+zc+PRHG4zXQVVywuHhVFIS8Pn6PGOpUzR6ONzrgvkR4M+xZHtY22psAhdyehN/V8wPHH55+ZMkB9vnCTlVSkQ5O1hqwsAZmkr/oUofn7UFj89TnXPzwoWHcxnwGeu8wVLvN9Houa7YPs7Q/BvwI/Ylah65Cd6Nq/jl6HM90KoXyqqUGip+OXqqk4+A89D4Vvk8ZIditm/yMiiyX7gcwqPqAzxjLdqu4r3DvUmw4pdX3/jKPvRMBNChqtnlzr5qfvKGPFe9Eg6s6sUauPro0Oj50Y4atl+0fchqeapbPdonZN9NCSKVjZMRPKo+sH0NYVXWT0aKh6NNUD9PPfqS9UMJv394frhrAvoRL+iOK5HDdxc+/PJySlKDOn+D85KJvZHigR5KccInoqv75PMXRwBonBBz//A4wkta7ODBF47YIWdkQZ20xTj3aW2keJDLTzo1UZ+OAwnPPOjjqpv8VSuVivsaztYhdnSOTX1M8RA8A+vyhCJLQVY/frRAn5KY4zjM/Lg+C56vNq+a/aPjqlvbYhIMw76/4WwcRsDqT8a/DjJ8I5hdDbB6CTPbCfjl5dNESqLU+Lw+c/0dX6AEmTwxTed2t38AcrQE72Rqou9nhesJ+IsUs4MJX1clujlh9fyA9z5QsP2P8+DB6sHI+8RhuDwJhke/akqUkQN0gWbqcuLL9sDfB7KLL4SV1IfNacUjfvREN+dpHgofzGYix4f2BnbzmNNfAjO4xSARudVfTX5d9JOkloMIH6IMff0ddl6ROQfro8R9rKzHId/n85SRperR+UF/9/Ygcn7k+vuKOWn1PGkMZJ4jxgivaWbAL98UmDyCjxxMLcehfTcF8h3esImjS9On8brA7ABqHoa8/nyW1YNc6hJfdjvUvDPBvnRM6NHSnV4HjPjCxfTXYVM0gEmekDR0qORnsS/DoHfejgZ9hB5MtmuPwL33zyvHx1WUYy8XpPrzu19FpSCuUBKacuF6DjxkJ8werTmOVMhkbwOcHnh60xXifhg5cAo3d+wo+ko3ApjhiujvNmdaPVc9GQt2kQNyPKV7ahoY6JwNYvNaCE7QtKvnX/QhFcQ1mXnwd8uzhzyOVd3pjwc725mctIwsHfOZm/NK1av/GEtdz4C/SMmDwMGjs9dn+3p+0O9T6PL82qa6sb80JUNf777pO1Q/nXEqb4Lo7sUWwapmHjwctPOXMdWDVd9O04+fiHOTUnrX2bs53tdmvSMY6V7PG/LcXOl4tEP6/eq8BkfknFAWpzTx/s4XXqYkErjJC7Gs6q/m+rvlDwVK+agftSiPCJu99jiy1DdpvJ3ZAvq7lg8pQ+Da90LZ0E/mwEevP6XwdgH8orqlMXry9u4sTmTpyHFofPubb94AferV9JdJQYTPYY4zE33vdUKi8a04ZebVBH3FwV5dZAp9f4PReOebb1x6/dPl5BmFLCdw/QyAh5puBvrlaUIH9O0XgMKMH9fXR4aPV1KYt0d+Lg+l7bm9gdcVSe3tF0N6uhddAHj99I6zjy5fFHQpHu94KMzc//HqWcTt0Z33dw92GdswD3BNUhUC/T7hl1ShxLd8+slEb2HgozefChLb4loEWQEURsjtwflRpXrs8PIdQTGx3YD/HNkxHHivJwqJVLzN6eOMSolx+iDCo7c/mYSPXp6AxW+133wzlE6cGrmugU1assFSElDqknvnFMxsN/YPjg6Znni1t7b2IRVP4x++aMeBfqyFG0Rvj/CvJ+CjFzoM9viKj/7NizftOJQlghVr1XJK4QJyoutXiYJEWb9yfg6ZbSRyaKY+7W2CrOmss5LBv9qOU33UxsQ4H7iaVqwR/fmYdUaXT8DHb7VfjNAz6ZWV7bga1vB+YHmCXe61zU04RwXJuXUXL+yaiVPYdnn98y8n+nZmZQX/vM2kT/737hWk4K1BF0tEouOODtTO4hkf/c0KoK+sZNJtQ+3WrFCZnIJ6o1Hkv6EpZm7c9vvUeb63ubb2VxwW7/U2wKPpv9gaO603BWp8bdY7go1rv9UavaBgzPGR2j10jt9pK8TuNt9dbP7CB//fLqJr78H4U+/iKez7by7zze9TCL+SziC8b/bYx2oErqoLhVRa8PxS9BQsnm51/KGe9tE9/C2FFa7XyFCWN6M3ECv23sOAv1mOuvC6lHH3f7OV8iscLGkDOEkvNPwZhpsE+O/4m7GhPiWAH5+C30tcb/7jb68KJ3uXUW72P3OzR9mOj7w9tm+TAYQPKym3CMMKjnkm/2YGuoufGsH/Ev0AQe/DHvnnSSIa3funu1Hy4DNtNjFHr9aD5uzdLMftO+E8enx6qE9LGoa3r/mXe2t7r57//Hdw/DfDbb7mM1JqrLItBDDHcbsZ+jAc0S1u9HPRASl1uvmSjET9kDo5jcuFm3/83TMHfds7TWNWj51QJXCRDt29OpxMj37SWRvhM/fAbz/f/OsY/M+vHIfYTePd85PTDz+DnOreqeuwUZQPZgsPRMQZan/BoFuX3KP6TiL6jxH7xSvS65Y1q1Ukjq4rihwfOvvM9lgvDzvXgZyjxlkLr9m8l3Ar8hf3wKcL17/4Nn/9/N2qpWkxTdNyTdn+7vvv2lvxDqfPtAs3vuaXU4Gcs3AHvZfmgE+mEq/j7rH79qsh/D+vdYXRkhYLCfm8FiPffwvy3ct42h3y+oj9JojtS1fUYaTHYMdd3j2DfmU7deGq/ZcP7+Lf20pTs4Qw0QQP/tvvtjC5X9kem7uAKB/EFAcFIv3wQC8LErf7N/fAp/X3Kmj9l4tPZPDDt7++JGVL6BJLsDz471+mXasfm7uAejaAUR4FCjvJWy+JV8XQLwz6TPv59S8XpzT18jtk/U2xY6IQEkDzv3J4yhUPgc5fnIEJhBq4vvVQqO/vr91Qfxe+0xm9ZLqe0tmWy/otVc/yeNPrkgv/nezt9Hrc1wdyaQIX4cyQaHTolrnd31G3tO0PhUw7Hqf0pccOHo7GBEEE+B/g3Q8vO+4+o6KGr0QL7LprUSPU6zaCa+J5zh2PF2+PnZBOp+PavKf6nJgjsRbho8BNbtPxwnhRE8B5Ol9w/elrP9RjnjPt8dLx7fGxkJFsnx08XCOfJKW6A69/fen2PrbHrP4yJakBvi8mXl2UuBmG+lmDHuFHKX+mvTVS/LffgisP5YVyG162t90MRxor5T+kApnX+yI0h6qHUI+D/o7Hw43p0algv/86gv/uZdMShGTa93YTvh7CZ2CXHXPhqr/2Lofig34KPkPT49soZS8HPwzhf9gitZDQ+xe86HiWMbJ6HPEsyIrno95rtUY/SVt3PV6mnRmH79A4jb/8bYj/m9q1hP3vv/3dK+XT8WHojOJFlcFWPF+gQd3eA2gKB/398JC9Ar78cuAaP6R5pTz5wc3t8MM4Jk3R6OX16WtJCnCC44mQNSQenSDPwQmLN1+Az6S3ufZ/5znt72qyZvzgJvW4M6TL0cuL14mCrsuMQvETcHq8jpi32fcSfJI9fT88bFrZZnEY+/Rfv0K0s7O//TZs23bihevL01QKUmXDWG0QxtTATdZMilCDTIdfCJhCjzfu7jMz4Tm+BPhbLxv/okxpbKURPpNZkah0ktAlKqtqFjLfli0HN7v1RAgbfF4Vi/oJd5/enq15Lp02zldu4Y/tdGcbpI1TmLrEDFIs86RfyBssePN002Iz7GpET3TM8UaU6S0pnUE/4BLDhnS6g5xtLpI3M0+lOArjs9cyaeQs/0E/dRLMJtaYiCWCy2aj71OT7j7TicfbmN4iMcLGXWFx/iwbOil8i1Fsedx5nN0MKXKAk3tX8FLq1Ct095kJ+HR8pFj3sT0En99iNxoNG5/rQlQFXHp8awv3s4sNWQ5ze8+XB+ESPwVdJYhd+0kRkuD0TvcKmMv6sW67jVrGOwADNRuEz8q1kpUP+TYdypfKyQZrp9+8gbS3AVsGahZNPknskrdPjRgBnKyaEnHVoKkTnce6oVuL0zZYe5wNkvwxVbNEs5IqX44RZwpHLVpCyCZlfweLMBp4+JA4MKhOMdYNA703b/mGhGZyu/BaTuVT+m1GwOBFRSkJFmo9NDxZNgveopQ7IuaL+KQeaRTo05kXfB6DaPPhY1rZh0fmVSx0hFoDvEExGcM9wkpALzCaEDEPusf5ylGWA5ENrJ+07oOvkQzOam8ztQ7vywQjfCym+cMkZwQ+z0ERQ00FmzlTFX2aU82Fb5FOBs7RdhwCOuR0xO1p+hKqEbYQNwQVxQG7C7/Cqe6B33azenlVQP/WRXdvlUqa6ymsmCIXg2/2IT6JAVnOFHxGD98DHysN4ZmNiiY98BDJZhHygAFmeprWkBdC8xDtZ8G3i/fBx4g3VUFV1DUbTLjHUExrKItxdzjhzJgFT+6D19QhPI8KdkPDpwJYeRBcAhCLKUG8uGqGgGuG/HYafpvk74NX3EZGHKcnLG1fjk0IRIPgTltMiFhW4+k7Dq9DSnPhtZgmu+07qGly8K6h4pS9JwBv9RT1a2M9TFz46dUZaTI/1mkxy+bwGYkqWUuzGkYyl+yGm0W7sZoDxdcXIbfnItZVqGzuzNmo82MdwBeH8HKvddaQmYqPb1WbWaiCNKsuL0A3wxW8t3+83ZmeruMRfK7ZN3UO38Y+BhR/jUHTlu06WHyplmsStjB3u8emBpTnU/gZff8++K6C+0B+S1mxHMNwZxGo9LH4V+FH0Bs5IxGKKvZn4u30GH6mrc519wCfVNLpzjY29IjlPp5XaGWbNrI3ejltYdhBzmR8CC0bx4dYN9fdWzENwiNveTBSHH4Jb2DledtjMca7J0K+3pzG76jle+DLqmwQgzI7F/TpmQeIKJRWPfztNLZsVzpG9h74Omme1crGguRxXxRRaHF8Ggf+DhT1W3Oz+zymcDUNajsjwKsQ/j3h2ufP3mYwoCU6t5OVx5q2DqkcfSyaRxEFLUmJ4T6Bm871eEN4rWksQr/mwSIKoVZygK16lc71eCGEL2PAM4J697M/KhCyoFCzamRujhfCbgbCl9VFSWP/HRFFMQSZzxx4EeGxmmupwVxc/R+L0JPntq+xlXMGDk+TAz8j+ccE6p25gx641ST8sBrKgj+XdI6IFlF68+GVLGq+KdNHafYhsSgrs+fqMMWzezDmrZ4cvItG/xQRzox5kR4CfaNpxWpZyhbzeV1fFKjz8ULyWQKBfsBsWVUYCfr93P+oiExuzIYXY1pPZgwKu/DXPsj/lghZZV7/OqZlFUZ7udgj1TtfoTsn2IWwm4EO4XEOeFdkZVaGG7KwO60uyLTEHxWhq8hnranCNsSvKdRqRhAvk/4TBVemG4QMkvWStyJJzGsa3kak24Ci7xHV8rNEtLG05+uy5EaxubrabBYb1FAN8HbyYyzoxkWsFVViyMxdbCij4KJDHuSKwV9x9B+KKFi1s15DJRNCi71kS3zs7CGs7DGgWbFSqwbSapViVt7d9j8j4rh87YN5kid5kif5bwl3clPeffr9oxWIcfVybqJFLdZzi/fk6aGMWnNfVmAeF1OrZHyBkdgkxsI27MWyXRygFO0HIAgWZLTjt/ni61iCeROgh0i+FlYhSzeyNesBewtZZRI+BvAL3LAXhSJeFPWwbG0aHq/NIWyB6xphVaZMfpjy7sCHBK21yKtRpuBF3/f5+fto0xB++BFGPvezu/v6XxbkGmACXsjXzpK5Wgjf8vqtrAn5ejabs/gOHryoQVHXatXyVizWqtXRVWp857xg5bLZsvf4dSFUy8GX5UvB7XKNwYshGMLJM+IusHEr9loL3ipej3IIj1cQEWLnB3yXpiC2+G2jiFXGnQnlnR2hbhCWzDLCAnqDqNA4vJhv8OnYssEXjcJviGM9kszZjDKF7zs0e6FBkhZYdAk+wptfiSH4BHaWz5Lwmz+FWqwThqsXxSwJbjgYwQs9g6ruI/z4g3cEhG5YghBTqXuznyG8kGMlPrSFM4PD8zvuUCUcEoQ67pznj79kDHcSmkG89asrPjxmLKwoiEIIlIcXw8HhU1IT+BObKW9Pe/DC2WA4rHND+OEZc19A9MvDbyOZB/OIBXe5jg+PZGyA+bssMzUrePAiv2XiBHySDDycu/Acml9EyS+qNnplK5Clj+D+8+Ex26ENkGKx2DibD58lVPXWoNwDj9cmU/hmlWRDwaMXypSdiR68yG8CDJofq3Nmw1MFG9jeheH3aT4UJgpfxacOAgcPQ5wxYOPweKWz0MQXY8c5G17uWgY6Qr7LPfCQ/7R6Kl/GGry6TyyDW1ZzAlq7jMEIPbf/eDVxruZhzNeBT+VZ7nx4IdcF35mv9eD/EryFWgjPL+/Gg8ULnXm08i4HEso9cT68sKp4hn8PfJnbvihA4A/eXB6wMrkGKY1KFfdqV+6i4DzAgM8BtIhxXq0JbuGH93YTOXxWELnh2yFQLVgL+AnwHH6oc+HxXiF2Hu0J4n4Ar6AXzkgzny8bMil6hRkkYxDk7F6PkTqkrGeqLCvFWsiCfWTFLue1sqzICoPglSOyrBbrsTq4P1nNlkJg3rJs9FpiKQkfGc26WINiFzxKvqkG8hojoWZjSl4s+2UXuCh8eAfe+QKiQHMVZZCvDdwXpZz3oi6KPXzRTLq7NLtW0XshJEd/VeoS1SZGOJhNPlGAsmwiB4H0TtO0kJu6DtcgDPt84lgYnF6X5O889lciX74Q3PbujGL7Ty2/g1zLP8mTPMmTPMmTPMmTPEkQ5P8AowqpC7/HQHoAAAAASUVORK5CYII=;" vertex="1" parent="1">
          <mxGeometry x="660" y="675.5" width="103.32" height="82" as="geometry" />
        </mxCell>
        <mxCell id="4CNYC6tnbti6a-UOO8II-6" value="" style="rounded=1;whiteSpace=wrap;html=1;fillColor=none;strokeWidth=3;strokeColor=#CC99FF;arcSize=5;" vertex="1" parent="1">
          <mxGeometry x="542" y="671" width="230" height="90" as="geometry" />
        </mxCell>
        <mxCell id="4CNYC6tnbti6a-UOO8II-7" value="" style="shape=flexArrow;endArrow=classic;html=1;rounded=0;" edge="1" parent="1">
          <mxGeometry width="50" height="50" relative="1" as="geometry">
            <mxPoint x="670" y="510" as="sourcePoint" />
            <mxPoint x="720" y="460" as="targetPoint" />
          </mxGeometry>
        </mxCell>
        <mxCell id="4CNYC6tnbti6a-UOO8II-8" value="" style="shape=flexArrow;endArrow=classic;html=1;rounded=0;entryX=0;entryY=0.75;entryDx=0;entryDy=0;" edge="1" parent="1">
          <mxGeometry width="50" height="50" relative="1" as="geometry">
            <mxPoint x="475.5" y="721" as="sourcePoint" />
            <mxPoint x="537" y="729.5" as="targetPoint" />
            <Array as="points">
              <mxPoint x="505" y="707" />
            </Array>
          </mxGeometry>
        </mxCell>
        <mxCell id="4CNYC6tnbti6a-UOO8II-9" value="CI/CD 환경 구축" style="text;html=1;align=center;verticalAlign=middle;whiteSpace=wrap;rounded=0;fontSize=18;fontStyle=1;fontColor=#9933FF;" vertex="1" parent="1">
          <mxGeometry x="777.5" y="722" width="220" height="39" as="geometry" />
        </mxCell>
      </root>
    </mxGraphModel>
  </diagram>
  <diagram id="C2q5aGpdltxOjI891gPR" name="페이지-2">
    <mxGraphModel dx="1434" dy="746" grid="1" gridSize="10" guides="1" tooltips="1" connect="1" arrows="1" fold="1" page="1" pageScale="1" pageWidth="827" pageHeight="1169" math="0" shadow="0">
      <root>
        <mxCell id="0" />
        <mxCell id="1" parent="0" />
        <mxCell id="JApWoBFBqSsrTjJg-cvU-1" value="&lt;font size=&quot;1&quot; color=&quot;#999999&quot;&gt;&lt;b style=&quot;font-size: 14px;&quot;&gt;User Interface&lt;/b&gt;&lt;/font&gt;" style="rounded=1;whiteSpace=wrap;html=1;strokeColor=#999999;strokeWidth=2;" vertex="1" parent="1">
          <mxGeometry x="450" y="320" width="120" height="60" as="geometry" />
        </mxCell>
        <mxCell id="JApWoBFBqSsrTjJg-cvU-2" value="&lt;font size=&quot;1&quot; color=&quot;#ff8000&quot; style=&quot;&quot;&gt;&lt;b style=&quot;font-size: 13px;&quot;&gt;Purchase Service&lt;/b&gt;&lt;/font&gt;" style="rounded=1;whiteSpace=wrap;html=1;strokeColor=#FF9933;strokeWidth=2;" vertex="1" parent="1">
          <mxGeometry x="210" y="500" width="120" height="60" as="geometry" />
        </mxCell>
        <mxCell id="JApWoBFBqSsrTjJg-cvU-3" value="&lt;font color=&quot;#ff8000&quot; style=&quot;font-size: 13px;&quot;&gt;&lt;b&gt;WebToon Service&lt;/b&gt;&lt;/font&gt;" style="rounded=1;whiteSpace=wrap;html=1;strokeColor=#FF8000;strokeWidth=2;" vertex="1" parent="1">
          <mxGeometry x="370" y="500" width="120" height="60" as="geometry" />
        </mxCell>
        <mxCell id="JApWoBFBqSsrTjJg-cvU-4" value="&lt;b&gt;&lt;font color=&quot;#ff8000&quot; style=&quot;font-size: 13px;&quot;&gt;History Service&lt;/font&gt;&lt;/b&gt;" style="rounded=1;whiteSpace=wrap;html=1;strokeColor=#FF8000;strokeWidth=2;" vertex="1" parent="1">
          <mxGeometry x="690" y="500" width="120" height="60" as="geometry" />
        </mxCell>
        <mxCell id="JApWoBFBqSsrTjJg-cvU-5" value="&lt;font color=&quot;#ff8000&quot; style=&quot;font-size: 13px;&quot;&gt;&lt;b&gt;User Service&lt;/b&gt;&lt;/font&gt;" style="rounded=1;whiteSpace=wrap;html=1;strokeColor=#FF8000;strokeWidth=2;" vertex="1" parent="1">
          <mxGeometry x="530" y="500" width="120" height="60" as="geometry" />
        </mxCell>
        <mxCell id="JApWoBFBqSsrTjJg-cvU-6" value="" style="strokeWidth=2;html=1;shape=mxgraph.flowchart.database;whiteSpace=wrap;" vertex="1" parent="1">
          <mxGeometry x="240" y="650" width="60" height="60" as="geometry" />
        </mxCell>
        <mxCell id="JApWoBFBqSsrTjJg-cvU-7" value="" style="shape=flexArrow;endArrow=classic;html=1;rounded=0;width=7;endSize=5;" edge="1" parent="1">
          <mxGeometry width="50" height="50" relative="1" as="geometry">
            <mxPoint x="250" y="640" as="sourcePoint" />
            <mxPoint x="250" y="570" as="targetPoint" />
            <Array as="points">
              <mxPoint x="250" y="600" />
            </Array>
          </mxGeometry>
        </mxCell>
        <mxCell id="JApWoBFBqSsrTjJg-cvU-8" value="" style="shape=flexArrow;endArrow=classic;html=1;rounded=0;width=7;endSize=5;" edge="1" parent="1">
          <mxGeometry width="50" height="50" relative="1" as="geometry">
            <mxPoint x="290" y="570" as="sourcePoint" />
            <mxPoint x="290" y="640" as="targetPoint" />
            <Array as="points">
              <mxPoint x="290" y="610" />
            </Array>
          </mxGeometry>
        </mxCell>
        <mxCell id="JApWoBFBqSsrTjJg-cvU-9" value="DataBase" style="text;html=1;align=center;verticalAlign=middle;whiteSpace=wrap;rounded=0;" vertex="1" parent="1">
          <mxGeometry x="240" y="670" width="60" height="30" as="geometry" />
        </mxCell>
        <mxCell id="JApWoBFBqSsrTjJg-cvU-10" value="" style="strokeWidth=2;html=1;shape=mxgraph.flowchart.database;whiteSpace=wrap;" vertex="1" parent="1">
          <mxGeometry x="400" y="650" width="60" height="60" as="geometry" />
        </mxCell>
        <mxCell id="JApWoBFBqSsrTjJg-cvU-11" value="" style="shape=flexArrow;endArrow=classic;html=1;rounded=0;width=7;endSize=5;" edge="1" parent="1">
          <mxGeometry width="50" height="50" relative="1" as="geometry">
            <mxPoint x="410" y="640" as="sourcePoint" />
            <mxPoint x="410" y="570" as="targetPoint" />
            <Array as="points">
              <mxPoint x="410" y="600" />
            </Array>
          </mxGeometry>
        </mxCell>
        <mxCell id="JApWoBFBqSsrTjJg-cvU-12" value="" style="shape=flexArrow;endArrow=classic;html=1;rounded=0;width=7;endSize=5;" edge="1" parent="1">
          <mxGeometry width="50" height="50" relative="1" as="geometry">
            <mxPoint x="450" y="570" as="sourcePoint" />
            <mxPoint x="450" y="640" as="targetPoint" />
            <Array as="points">
              <mxPoint x="450" y="610" />
            </Array>
          </mxGeometry>
        </mxCell>
        <mxCell id="JApWoBFBqSsrTjJg-cvU-13" value="DataBase" style="text;html=1;align=center;verticalAlign=middle;whiteSpace=wrap;rounded=0;" vertex="1" parent="1">
          <mxGeometry x="400" y="670" width="60" height="30" as="geometry" />
        </mxCell>
        <mxCell id="JApWoBFBqSsrTjJg-cvU-14" value="" style="strokeWidth=2;html=1;shape=mxgraph.flowchart.database;whiteSpace=wrap;" vertex="1" parent="1">
          <mxGeometry x="560" y="650" width="60" height="60" as="geometry" />
        </mxCell>
        <mxCell id="JApWoBFBqSsrTjJg-cvU-15" value="" style="shape=flexArrow;endArrow=classic;html=1;rounded=0;width=7;endSize=5;" edge="1" parent="1">
          <mxGeometry width="50" height="50" relative="1" as="geometry">
            <mxPoint x="570" y="640" as="sourcePoint" />
            <mxPoint x="570" y="570" as="targetPoint" />
            <Array as="points">
              <mxPoint x="570" y="600" />
            </Array>
          </mxGeometry>
        </mxCell>
        <mxCell id="JApWoBFBqSsrTjJg-cvU-16" value="" style="shape=flexArrow;endArrow=classic;html=1;rounded=0;width=7;endSize=5;" edge="1" parent="1">
          <mxGeometry width="50" height="50" relative="1" as="geometry">
            <mxPoint x="610" y="570" as="sourcePoint" />
            <mxPoint x="610" y="640" as="targetPoint" />
            <Array as="points">
              <mxPoint x="610" y="610" />
            </Array>
          </mxGeometry>
        </mxCell>
        <mxCell id="JApWoBFBqSsrTjJg-cvU-17" value="DataBase" style="text;html=1;align=center;verticalAlign=middle;whiteSpace=wrap;rounded=0;" vertex="1" parent="1">
          <mxGeometry x="560" y="670" width="60" height="30" as="geometry" />
        </mxCell>
        <mxCell id="JApWoBFBqSsrTjJg-cvU-18" value="" style="strokeWidth=2;html=1;shape=mxgraph.flowchart.database;whiteSpace=wrap;" vertex="1" parent="1">
          <mxGeometry x="720" y="650" width="60" height="60" as="geometry" />
        </mxCell>
        <mxCell id="JApWoBFBqSsrTjJg-cvU-19" value="" style="shape=flexArrow;endArrow=classic;html=1;rounded=0;width=7;endSize=5;" edge="1" parent="1">
          <mxGeometry width="50" height="50" relative="1" as="geometry">
            <mxPoint x="730" y="640" as="sourcePoint" />
            <mxPoint x="730" y="570" as="targetPoint" />
            <Array as="points">
              <mxPoint x="730" y="600" />
            </Array>
          </mxGeometry>
        </mxCell>
        <mxCell id="JApWoBFBqSsrTjJg-cvU-20" value="" style="shape=flexArrow;endArrow=classic;html=1;rounded=0;width=7;endSize=5;" edge="1" parent="1">
          <mxGeometry width="50" height="50" relative="1" as="geometry">
            <mxPoint x="770" y="570" as="sourcePoint" />
            <mxPoint x="770" y="640" as="targetPoint" />
            <Array as="points">
              <mxPoint x="770" y="610" />
            </Array>
          </mxGeometry>
        </mxCell>
        <mxCell id="JApWoBFBqSsrTjJg-cvU-21" value="DataBase" style="text;html=1;align=center;verticalAlign=middle;whiteSpace=wrap;rounded=0;" vertex="1" parent="1">
          <mxGeometry x="720" y="670" width="60" height="30" as="geometry" />
        </mxCell>
        <mxCell id="JApWoBFBqSsrTjJg-cvU-22" value="" style="endArrow=classic;html=1;rounded=0;exitX=0.25;exitY=1;exitDx=0;exitDy=0;strokeWidth=2;strokeColor=#999999;" edge="1" parent="1" source="JApWoBFBqSsrTjJg-cvU-1">
          <mxGeometry width="50" height="50" relative="1" as="geometry">
            <mxPoint x="490" y="390" as="sourcePoint" />
            <mxPoint x="270" y="490" as="targetPoint" />
          </mxGeometry>
        </mxCell>
        <mxCell id="JApWoBFBqSsrTjJg-cvU-23" value="" style="endArrow=classic;html=1;rounded=0;exitX=0.25;exitY=1;exitDx=0;exitDy=0;strokeWidth=2;strokeColor=#999999;" edge="1" parent="1">
          <mxGeometry width="50" height="50" relative="1" as="geometry">
            <mxPoint x="550" y="380" as="sourcePoint" />
            <mxPoint x="750" y="490" as="targetPoint" />
          </mxGeometry>
        </mxCell>
        <mxCell id="JApWoBFBqSsrTjJg-cvU-24" value="" style="endArrow=classic;html=1;rounded=0;exitX=0.375;exitY=1.033;exitDx=0;exitDy=0;strokeWidth=2;strokeColor=#999999;exitPerimeter=0;" edge="1" parent="1" source="JApWoBFBqSsrTjJg-cvU-1">
          <mxGeometry width="50" height="50" relative="1" as="geometry">
            <mxPoint x="490" y="390" as="sourcePoint" />
            <mxPoint x="430" y="490" as="targetPoint" />
          </mxGeometry>
        </mxCell>
        <mxCell id="JApWoBFBqSsrTjJg-cvU-25" value="" style="endArrow=classic;html=1;rounded=0;exitX=0.642;exitY=1.033;exitDx=0;exitDy=0;strokeWidth=2;strokeColor=#999999;exitPerimeter=0;" edge="1" parent="1" source="JApWoBFBqSsrTjJg-cvU-1">
          <mxGeometry width="50" height="50" relative="1" as="geometry">
            <mxPoint x="543" y="393" as="sourcePoint" />
            <mxPoint x="590" y="490" as="targetPoint" />
          </mxGeometry>
        </mxCell>
      </root>
    </mxGraphModel>
  </diagram>
</mxfile>
